{
.appVersion = "3326";
.formatVersion = 3;
DisplayStrings = (
"In principio erat verbum",
"Non omni homini revele cor tuum , sed cum sapiente ,& timen-te deum age causam tuam. cum juvenibu & extranei , ratu esto. cum divitibu noli blandire ;& coram magnatibu non libenter apparea. cum humilibu & simplicibu , cum devoti & morigerati sociare :& que aedificationi sunt ,  pertracta. Non sis familiari alicui mulieri ; sed , in communi omne bona muliere deo commenda. soli deo & angeli eju opta familiari esse , & himinum notitiam devita. charitas habenda est ad omne , sed familiarita non expedit. quandoque accidit , ut persona ignota , ex bona fama lucescat : cujus tamen praesentia oculos intuentium offuscat. putamu aliquando alii placere ex conjunctione nostra ; & incipimu mati displicere ex morum improbitate in nobi considearta."
);
axes = (
{
name = "Optical size";
tag = opsz;
}
);
date = "2024-11-02 11:29:09 +0000";
familyName = Groote;
featurePrefixes = (
{
automatic = 1;
code = "languagesystem DFLT dflt;
";
name = Languagesystems;
}
);
features = (
{
automatic = 1;
code = "feature hist;
";
tag = aalt;
},
{
automatic = 1;
code = "sub s by s.hist;
";
tag = hist;
},
{
automatic = 1;
code = "lookupflag IgnoreMarks;
sub c t by c_t;
sub s i by s_i;
sub s s by s_s;
sub s t by s_t;
";
tag = dlig;
},
{
automatic = 1;
code = "lookupflag IgnoreMarks;
sub f f by f_f;
sub f i by f_i;
";
tag = liga;
}
);
fontMaster = (
{
axesValues = (
18
);
customParameters = (
{
name = unitizerUnit;
value = 9.09169;
}
);
id = m01;
metricValues = (
{
pos = 700;
},
{
over = 12;
pos = 700;
},
{
over = 12;
pos = 435;
},
{
over = -12;
},
{
over = -12;
pos = -150;
}
);
name = Romyn18;
stemValues = (
81,
28
);
userData = {
GSOffsetHorizontal = 4;
GSOffsetVertical = 4;
};
},
{
axesValues = (
10
);
customParameters = (
{
name = unitizerUnit;
value = 9.08995;
}
);
iconName = Bold;
id = m002;
metricValues = (
{
pos = 700;
},
{
over = 12;
pos = 700;
},
{
over = 12;
pos = 445;
},
{
over = -12;
},
{

glyphs = (
{
glyphname = A;
lastChange = "2024-11-10 11:52:58 +0000";
layers = (
{
anchors = (
{
name = bottom;
pos = (394,0);
},
{
name = ogonek;
pos = (708,10);
},
{
name = top;
pos = (394,700);
}
);
layerId = m01;
shapes = (
{
closed = 1;
nodes = (
(769,0,l),
(769,28,l),
(763,28,l),
(730,28,o),
(684,72,o),
(662,134,cs),
(468,679,l),
(458,719,l),
(447,728,l),
(426,716,o),
(381,704,o),
(339,700,c),
(339,666,l),
(371,659,l),
(467,388,o),
(550,152,o),
(571,89,cs),
(582,52,o),
(565,26,o),
(531,26,cs),
(468,26,l),
(468,-2,l)
);
},
{
closed = 1;
nodes = (
(317,1,l),
(317,28,l),
(310,28,o),
(315,29,o),
(297,29,cs),
(244,29,o),
(213,59,o),
(222,101,c),
(385,660,l),
(342,686,l),
(273,480,o),
(201,240,o),
(168,105,cs),
(157,60,o),
(119,29,o),
(76,29,cs),
(18,29,l),
(18,1,l)
);
},
{
closed = 1;
nodes = (
(565,288,l),
(565,338,l),
(253,338,l),
(253,288,l)
);
}
);
width = 787;
},
{
anchors = (
{
name = bottom;
pos = (397,0);
},
{
name = ogonek;
pos = (714,10);
},
{
name = top;
pos = (397,700);
}
);
layerId = m002;
shapes = (
{
closed = 1;
nodes = (
(772,0,l),
(772,38,l),
(766,38,l),
(733,38,o),
(687,82,o),
(665,144,cs),
(471,679,l),
(461,719,l),
(450,728,l),
(429,716,o),
(384,704,o),
(342,700,c),
(342,666,l),
(374,659,l),
(470,388,o),
(553,162,o),
(574,99,cs),
(585,62,o),
(568,36,o),
(534,36,cs),
(471,36,l),
(471,-2,l)
);
},
{
closed = 1;
nodes = (
(320,1,l),
(320,38,l),
(313,38,o),
(318,39,o),
(300,39,cs),
(247,39,o),
(216,69,o),
(225,111,c),
(388,660,l),
(345,686,l),
(276,480,o),
(204,250,o),
(171,115,cs),
(160,70,o),
(122,39,o),
(79,39,cs),
(21,39,l),
(21,1,l)
);
},
{
closed = 1;
nodes = (
(568,288,l),
(568,333,l),
(256,333,l),
(256,288,l)
);
}
);
width = 793;
}
);
unicode = 65;
},
{
glyphname = AE;
lastChange = "2024-11-09 08:47:37 +0000";
layers = (
{
layerId = m01;
shapes = (
{
closed = 1;
nodes = (
(850,0,l),
(943,131,l),
(922,149,l),
(860,82,o),
(805,34,o),
(776,34,cs),
(733,34,o),
(665,34,o),
(644,34,cs),
(607,34,o),
(580,56,o),
(580,86,cs),
(580,116,o),
(580,623,o),
(580,635,cs),
(580,653,o),
(604,665,o),
(637,665,cs),
(657,665,o),
(701,665,o),
(718,665,cs),
(759,665,o),
(817,613,o),
(859,539,c),
(883,552,l),
(816,700,l),
(717,700,o),
(630,698,o),
(531,698,cs),
(483,698,o),
(324,700,o),
(271,700,c),
(271,672,l),
(322,672,o),
(395,672,o),
(423,672,cs),
(456,672,o),
(480,661,o),
(480,633,cs),
(480,559,o),
(480,147,o),
(480,106,cs),
(480,60,o),
(459,28,o),
(429,28,cs),
(397,28,l),
(397,0,l),
(438,0,o),
(490,2,o),
(526,2,cs),
(562,2,o),
(650,-2,o),
(690,-2,cs)
);
},
{
closed = 1;
nodes = (
(304,0,l),
(304,28,l),
(286,28,l),
(248,28,o),
(220,58,o),
(234,98,c),
(471,686,l),
(437,689,l),
(288,371,o),
(210,212,o),
(184,156,cs),
(150,83,o),
(94,28,o),
(45,28,cs),
(18,28,l),
(18,0,l)
);
},
{
closed = 1;
nodes = (
(800,200,l),
(796,271,o),
(796,371,o),
(800,442,c),
(772,442,l),
(772,379,o),
(746,334,o),
(709,334,cs),
(290,334,l),
(289,304,l),
(352,304,o),
(684,304,o),
(709,304,cs),
(746,304,o),
(773,261,o),
(773,200,c)
);
}
);
width = 988;
},
{
layerId = m002;
shapes = (
{
closed = 1;
nodes = (
(853,0,l),
(946,131,l),
(915,149,l),
(853,82,o),
(808,44,o),
(779,44,cs),
(736,44,o),
(668,44,o),
(647,44,cs),
(610,44,o),
(583,66,o),
(583,96,cs),
(583,126,o),
(583,613,o),
(583,625,cs),
(583,643,o),
(607,655,o),
(640,655,cs),
(660,655,o),
(704,655,o),
(721,655,cs),
(762,655,o),
(810,613,o),
(852,539,c),
(886,552,l),
(819,700,l),
(720,700,o),
(633,698,o),
(534,698,cs),
(486,698,o),
(327,700,o),
(274,700,c),
(274,662,l),
(325,662,o),
(398,662,o),
(426,662,cs),
(459,662,o),
(483,651,o),
(483,623,cs),
(483,549,o),
(483,157,o),
(483,116,cs),
(483,70,o),
(462,38,o),
(432,38,cs),
(400,38,l),
(400,0,l),
(441,0,o),
(493,2,o),
(529,2,cs),
(565,2,o),
(653,-2,o),
(693,-2,cs)
);
},
{
closed = 1;
nodes = (
(307,0,l),
(307,38,l),
(289,38,l),
(251,38,o),
(223,68,o),
(237,108,c),
(484,686,l),
(440,689,l),
(291,371,o),
(213,222,o),
(187,166,cs),
(153,93,o),
(97,38,o),
(48,38,cs),
(21,38,l),
(21,0,l)
);
},
{
closed = 1;
nodes = (
(808,200,l),
(804,271,o),
(804,371,o),
(808,442,c),
(775,442,l),
(775,379,o),
(749,344,o),
(712,344,cs),
(293,344,l),
(292,299,l),
(355,299,o),
(687,299,o),
(712,299,cs),
(749,299,o),
(776,261,o),
(776,200,c)
);
}
);
width = 994;
}
);
metricLeft = A;
metricRight = E;
unicode = 198;
},
{
glyphname = B;
lastChange = "2024-11-09 08:47:37 +0000";
layers = (
{
layerId = m01;
shapes = (
{
closed = 1;
nodes = (
(72,0,o),
(108,2,o),
(158,2,cs),
(210,2,o),
(335,0,o),
(387,0,cs),
(523,0,o),
(620,78,o),
(620,188,cs),
(620,299,o),
(505,377,o),
(343,377,cs),
(190,377,l),
(190,336,l),
(241,336,o),
(300,336,o),
(343,336,cs),
(429,336,o),
(490,273,o),
(490,185,cs),
(490,95,o),
(434,31,o),
(356,31,cs),
(282,31,o),
(227,57,o),
(227,94,cs),
(227,669,l),
(256,669,o),
(302,669,o),
(333,669,cs),
(407,669,o),
(459,609,o),
(459,523,cs),
(459,437,o),
(392,377,o),
(297,377,c),
(297,344,l),
(461,344,o),
(577,426,o),
(577,541,cs),
(577,629,o),
(478,694,o),
(339,699,cs),
(343,698,o),
(274,698,o),
(174,698,cs),
(146,698,o),
(39,700,o),
(22,700,c),
(22,672,l),
(31,672,o),
(37,672,o),
(48,672,cs),
(94,672,o),
(127,647,o),
(127,611,cs),
(127,562,o),
(127,104,o),
(127,71,cs),
(127,46,o),
(102,28,o),
(67,28,cs),
(30,28,l),
(30,0,l)
);
}
);
width = 675;
},
{
layerId = m002;
shapes = (
{
closed = 1;
nodes = (
(75,0,o),
(111,2,o),
(161,2,cs),
(213,2,o),
(338,0,o),
(390,0,cs),
(526,0,o),
(623,78,o),
(623,188,cs),
(623,299,o),
(508,382,o),
(346,382,cs),
(193,382,l),
(193,331,l),
(244,331,o),
(303,331,o),
(346,331,cs),
(432,331,o),
(493,273,o),
(493,185,cs),
(493,95,o),
(437,41,o),
(359,41,cs),
(285,41,o),
(230,67,o),
(230,104,cs),
(230,659,l),
(259,659,o),
(305,659,o),
(336,659,cs),
(410,659,o),
(462,609,o),
(462,523,cs),
(462,437,o),
(395,382,o),
(300,382,c),
(300,339,l),
(464,339,o),
(580,426,o),
(580,541,cs),
(580,629,o),
(481,694,o),
(342,699,cs),
(346,698,o),
(277,698,o),
(177,698,cs),
(149,698,o),
(42,700,o),
(25,700,c),
(25,662,l),
(34,662,o),
(40,662,o),
(51,662,cs),
(97,662,o),
(130,647,o),
(130,611,cs),
(130,562,o),
(130,104,o),
(130,71,cs),
(130,46,o),
(105,38,o),
(70,38,cs),
(33,38,l),
(33,0,l)
);
}
);
width = 681;
}
);
metricLeft = n;
metricRight = o;
unicode = 66;
},
{
glyphname = C;
lastChange = "2024-11-09 08:47:37 +0000";
layers = (
{
layerId = m01;
shapes = (
{
closed = 1;
nodes = (
(565,-8,o),
(690,44,o),
(749,118,c),
(752,249,l),
(729,251,l),
(716,124,o),
(614,34,o),
(483,34,cs),
(317,34,o),
(190,192,o),
(190,415,cs),
(190,574,o),
(297,687,o),
(433,687,cs),
(560,687,o),
(667,624,o),
(690,536,c),
(714,536,l),
(704,707,l),
(677,707,l),
(672,689,o),
(661,677,o),
(651,677,c),
(606,705,o),
(520,725,o),
(444,725,cs),
(221,725,o),
(64,573,o),
(64,359,cs),
(64,144,o),
(223,-8,o),
(448,-8,cs)
);
}
);
width = 816;
},
{
layerId = m002;
shapes = (
{
closed = 1;
nodes = (
(568,-8,o),
(693,44,o),
(752,118,c),
(755,259,l),
(732,261,l),
(719,134,o),
(617,44,o),
(486,44,cs),
(320,44,o),
(193,192,o),
(193,415,cs),
(193,574,o),
(300,677,o),
(436,677,cs),
(563,677,o),
(670,614,o),
(693,526,c),
(717,526,l),
(707,707,l),
(680,707,l),
(675,689,o),
(664,677,o),
(654,677,c),
(609,705,o),
(523,725,o),
(447,725,cs),
(224,725,o),
(67,573,o),
(67,359,cs),
(67,144,o),
(226,-8,o),
(451,-8,cs)
);
}
);
width = 822;
}
);
unicode = 67;
},
{
glyphname = D;
lastChange = "2024-11-09 08:47:37 +0000";
layers = (
{
layerId = m01;
shapes = (
{
closed = 1;
nodes = (
(51,-1,o),
(128,0,o),
(173,0,cs),
(231,0,o),
(303,-3,o),
(370,-3,cs),
(594,-3,o),
(753,160,o),
(753,390,cs),
(753,573,o),
(608,702,o),
(402,702,cs),
(340,702,o),
(198,700,o),
(168,700,cs),
(138,700,o),
(86,702,o),
(72,702,cs),
(-1,702,l),
(-1,672,l),
(12,672,o),
(12,672,o),
(39,672,cs),
(90,672,o),
(127,636,o),
(127,586,cs),
(127,519,o),
(127,163,o),
(127,132,cs),
(127,71,o),
(84,27,o),
(25,27,cs),
(-11,27,l),
(-11,-3,l)
);
},
{
closed = 1;
nodes = (
(290,32,o),
(227,63,o),
(227,107,cs),
(227,666,l),
(272,666,o),
(334,666,o),
(370,666,cs),
(513,666,o),
(625,546,o),
(625,368,cs),
(625,168,o),
(516,32,o),
(377,32,cs)
);
}
);
width = 817;
},
{
layerId = m002;
shapes = (
{
closed = 1;
nodes = (
(54,-1,o),
(131,0,o),
(176,0,cs),
(234,0,o),
(306,-3,o),
(373,-3,cs),
(597,-3,o),
(756,160,o),
(756,390,cs),
(756,573,o),
(611,702,o),
(405,702,cs),
(343,702,o),
(201,700,o),
(171,700,cs),
(141,700,o),
(89,702,o),
(75,702,cs),
(2,702,l),
(2,662,l),
(15,662,o),
(15,662,o),
(42,662,cs),
(93,662,o),
(130,636,o),
(130,586,cs),
(130,519,o),
(130,163,o),
(130,132,cs),
(130,71,o),
(87,37,o),
(28,37,cs),
(-8,37,l),
(-8,-3,l)
);
},
{
closed = 1;
nodes = (
(293,42,o),
(230,63,o),
(230,107,cs),
(230,656,l),
(275,656,o),
(337,656,o),
(373,656,cs),
(516,656,o),
(628,546,o),
(628,368,cs),
(628,168,o),
(519,42,o),
(380,42,cs)
);
}
);
width = 823;
}
);
metricLeft = n;
metricRight = o;
unicode = 68;
},
{
glyphname = E;
lastChange = "2024-11-09 08:47:37 +0000";
layers = (
{
layerId = m01;
shapes = (
{
closed = 1;
nodes = (
(568,-1,l),
(647,143,l),
(622,158,l),
(576,82,o),
(512,34,o),
(467,34,cs),
(447,34,o),
(299,34,o),
(273,34,cs),
(245,34,o),
(227,56,o),
(227,88,cs),
(227,202,o),
(227,599,o),
(227,620,cs),
(227,646,o),
(255,665,o),
(297,665,cs),
(317,665,o),
(422,665,o),
(435,665,cs),
(496,665,o),
(540,625,o),
(540,561,c),
(568,561,l),
(568,700,l),
(484,700,o),
(337,700,o),
(317,700,cs),
(297,700,o),
(203,697,o),
(188,697,cs),
(173,697,o),
(76,700,o),
(53,700,c),
(53,667,l),
(98,667,o),
(127,643,o),
(127,609,cs),
(127,585,o),
(127,181,o),
(127,137,cs),
(127,76,o),
(107,33,o),
(76,33,cs),
(41,33,l),
(41,0,l),
(72,0,o),
(133,0,o),
(177,0,cs),
(221,0,o),
(285,-1,o),
(322,-1,cs)
);
},
{
closed = 1;
nodes = (
(499,260,l),
(495,327,o),
(495,395,o),
(499,462,c),
(471,462,l),
(471,403,o),
(447,374,o),
(408,374,cs),
(199,374,l),
(198,344,l),
(261,344,o),
(383,344,o),
(408,344,cs),
(448,344,o),
(472,295,o),
(472,260,c)
);
}
);
width = 692;
},
{
layerId = m002;
shapes = (
{
closed = 1;
nodes = (
(571,-1,l),
(650,143,l),
(615,158,l),
(569,82,o),
(515,44,o),
(470,44,cs),
(450,44,o),
(302,44,o),
(276,44,cs),
(248,44,o),
(230,66,o),
(230,88,cs),
(230,202,o),
(230,589,o),
(230,610,cs),
(230,636,o),
(258,655,o),
(300,655,cs),
(320,655,o),
(425,655,o),
(438,655,cs),
(499,655,o),
(533,625,o),
(533,561,c),
(571,561,l),
(571,700,l),
(487,700,o),
(340,700,o),
(320,700,cs),
(300,700,o),
(206,697,o),
(191,697,cs),
(176,697,o),
(79,700,o),
(56,700,c),
(56,657,l),
(101,657,o),
(130,633,o),
(130,599,cs),
(130,575,o),
(130,181,o),
(130,137,cs),
(130,76,o),
(110,43,o),
(79,43,cs),
(44,43,l),
(44,0,l),
(75,0,o),
(136,0,o),
(180,0,cs),
(224,0,o),
(288,-1,o),
(325,-1,cs)
);
},
{
closed = 1;
nodes = (
(507,260,l),
(503,327,o),
(503,395,o),
(507,462,c),
(474,462,l),
(474,403,o),
(450,379,o),
(411,379,cs),
(202,379,l),
(201,339,l),
(264,339,o),
(386,339,o),
(411,339,cs),
(451,339,o),
(475,295,o),
(475,260,c)
);
}
);
width = 698;
}
);
unicode = 69;
},
{
glyphname = F;
lastChange = "2024-11-09 08:47:37 +0000";
layers = (
{
layerId = m01;
shapes = (
{
closed = 1;
nodes = (
(320,27,l),
(298,27,o),
(281,27,o),
(273,27,cs),
(245,27,o),
(227,49,o),
(227,81,cs),
(227,195,o),
(227,599,o),
(227,620,cs),
(227,646,o),
(255,665,o),
(297,665,cs),
(317,665,o),
(422,665,o),
(435,665,cs),
(496,665,o),
(530,625,o),
(540,561,c),
(568,561,l),
(558,700,l),
(474,700,o),
(337,700,o),
(317,700,cs),
(297,700,o),
(203,697,o),
(188,697,cs),
(173,697,o),
(76,700,o),
(53,700,c),
(53,667,l),
(98,667,o),
(127,643,o),
(127,609,cs),
(127,585,o),
(127,181,o),
(127,137,cs),
(127,69,o),
(107,26,o),
(76,26,cs),
(41,26,l),
(41,0,l),
(72,0,o),
(133,0,o),
(177,0,cs),
(220,0,o),
(283,-1,o),
(320,-1,c)
);
},
{
closed = 1;
nodes = (
(479,240,l),
(475,307,o),
(475,415,o),
(479,482,c),
(451,482,l),
(451,423,o),
(427,374,o),
(388,374,cs),
(199,374,l),
(198,344,l),
(261,344,o),
(363,344,o),
(388,344,cs),
(428,344,o),
(452,275,o),
(452,240,c)
);
}
);
width = 586;
},
{
layerId = m002;
shapes = (
{
closed = 1;
nodes = (
(323,37,l),
(301,37,o),
(284,37,o),
(276,37,cs),
(248,37,o),
(230,49,o),
(230,81,cs),
(230,195,o),
(230,589,o),
(230,610,cs),
(230,636,o),
(258,655,o),
(300,655,cs),
(320,655,o),
(425,655,o),
(438,655,cs),
(499,655,o),
(523,625,o),
(533,561,c),
(571,561,l),
(561,700,l),
(477,700,o),
(340,700,o),
(320,700,cs),
(300,700,o),
(206,697,o),
(191,697,cs),
(176,697,o),
(79,700,o),
(56,700,c),
(56,657,l),
(101,657,o),
(130,633,o),
(130,599,cs),
(130,575,o),
(130,181,o),
(130,137,cs),
(130,69,o),
(110,36,o),
(79,36,cs),
(44,36,l),
(44,0,l),
(75,0,o),
(136,0,o),
(180,0,cs),
(223,0,o),
(286,-1,o),
(323,-1,c)
);
},
{
closed = 1;
nodes = (
(487,240,l),
(483,307,o),
(483,415,o),
(487,482,c),
(454,482,l),
(454,423,o),
(430,379,o),
(391,379,cs),
(202,379,l),
(201,339,l),
(264,339,o),
(366,339,o),
(391,339,cs),
(431,339,o),
(455,275,o),
(455,240,c)
);
}
);
width = 592;
}
);
metricLeft = n;
metricRight = n;
unicode = 70;
},
{
glyphname = G;
lastChange = "2024-11-09 08:47:37 +0000";
layers = (
{
layerId = m01;
shapes = (
{
closed = 1;
nodes = (
(554,-20,o),
(668,13,o),
(751,59,c),
(751,73,l),
(740,79,o),
(732,89,o),
(732,96,cs),
(732,109,o),
(732,199,o),
(732,222,cs),
(732,252,o),
(751,274,o),
(778,274,cs),
(802,274,l),
(802,309,l),
(487,309,l),
(487,273,l),
(510,273,o),
(581,273,o),
(587,273,cs),
(612,273,o),
(630,234,o),
(630,180,cs),
(630,80,o),
(564,10,o),
(485,10,cs),
(329,10,o),
(199,150,o),
(199,347,cs),
(199,540,o),
(320,676,o),
(492,676,cs),
(600,676,o),
(695,606,o),
(723,507,c),
(744,507,l),
(744,694,l),
(676,694,o),
(566,712,o),
(474,712,cs),
(234,712,o),
(64,561,o),
(64,348,cs),
(64,132,o),
(235,-20,o),
(476,-20,cs)
);
}
);
width = 859;
},
{
layerId = m002;
shapes = (
{
closed = 1;
nodes = (
(557,-20,o),
(671,13,o),
(754,59,c),
(754,73,l),
(743,79,o),
(735,89,o),
(735,96,cs),
(735,109,o),
(735,199,o),
(735,222,cs),
(735,252,o),
(754,274,o),
(781,274,cs),
(805,274,l),
(805,319,l),
(490,319,l),
(490,273,l),
(513,273,o),
(584,273,o),
(590,273,cs),
(615,273,o),
(633,234,o),
(633,180,cs),
(633,80,o),
(567,20,o),
(488,20,cs),
(332,20,o),
(202,150,o),
(202,347,cs),
(202,540,o),
(323,666,o),
(495,666,cs),
(603,666,o),
(698,596,o),
(726,497,c),
(747,497,l),
(747,694,l),
(679,694,o),
(569,712,o),
(477,712,cs),
(237,712,o),
(67,561,o),
(67,348,cs),
(67,132,o),
(238,-20,o),
(479,-20,cs)
);
}
);
width = 865;
}
);
unicode = 71;
},
{
glyphname = H;
lastChange = "2024-11-09 08:47:37 +0000";
layers = (
{
layerId = m01;
shapes = (
{
closed = 1;
nodes = (
(851,0,l),
(851,28,l),
(845,28,o),
(840,28,o),
(832,28,cs),
(783,28,o),
(735,63,o),
(735,112,cs),
(735,137,o),
(735,581,o),
(735,605,cs),
(735,644,o),
(769,672,o),
(798,672,cs),
(826,672,l),
(826,700,l),
(521,700,l),
(521,672,l),
(532,672,o),
(541,672,o),
(554,672,cs),
(594,672,o),
(635,652,o),
(635,624,cs),
(635,601,o),
(635,146,o),
(635,125,cs),
(635,68,o),
(595,28,o),
(557,28,cs),
(517,28,l),
(517,0,l)
);
},
{
closed = 1;
nodes = (
(348,0,l),
(348,28,l),
(341,28,o),
(341,28,o),
(327,28,cs),
(276,28,o),
(227,61,o),
(227,108,cs),
(227,138,o),
(227,591,o),
(227,612,cs),
(227,647,o),
(255,672,o),
(277,672,cs),
(327,672,l),
(327,700,l),
(38,700,l),
(38,672,l),
(46,672,o),
(53,672,o),
(63,672,cs),
(91,672,o),
(127,669,o),
(127,649,cs),
(127,595,o),
(127,164,o),
(127,132,cs),
(127,71,o),
(90,28,o),
(64,28,cs),
(25,28,l),
(25,0,l)
);
},
{
closed = 1;
nodes = (
(680,345,l),
(680,380,l),
(217,380,l),
(217,345,l)
);
}
);
width = 862;
},
{
layerId = m002;
shapes = (
{
closed = 1;
nodes = (
(854,0,l),
(854,38,l),
(848,38,o),
(843,38,o),
(835,38,cs),
(786,38,o),
(738,73,o),
(738,112,cs),
(738,137,o),
(738,581,o),
(738,605,cs),
(738,634,o),
(772,662,o),
(801,662,cs),
(829,662,l),
(829,700,l),
(524,700,l),
(524,662,l),
(535,662,o),
(544,662,o),
(557,662,cs),
(597,662,o),
(638,642,o),
(638,624,cs),
(638,601,o),
(638,146,o),
(638,125,cs),
(638,78,o),
(598,38,o),
(560,38,cs),
(520,38,l),
(520,0,l)
);
},
{
closed = 1;
nodes = (
(351,0,l),
(351,38,l),
(344,38,o),
(344,38,o),
(330,38,cs),
(279,38,o),
(230,71,o),
(230,108,cs),
(230,138,o),
(230,591,o),
(230,612,cs),
(230,637,o),
(258,662,o),
(280,662,cs),
(330,662,l),
(330,700,l),
(41,700,l),
(41,662,l),
(49,662,o),
(56,662,o),
(66,662,cs),
(94,662,o),
(130,659,o),
(130,639,cs),
(130,585,o),
(130,164,o),
(130,132,cs),
(130,81,o),
(93,38,o),
(67,38,cs),
(28,38,l),
(28,0,l)
);
},
{
closed = 1;
nodes = (
(683,345,l),
(683,390,l),
(220,390,l),
(220,345,l)
);
}
);
width = 868;
}
);
unicode = 72;
},
{
glyphname = I;
lastChange = "2024-11-09 08:47:37 +0000";
layers = (
{
layerId = m01;
shapes = (
{
closed = 1;
nodes = (
(298,0,l),
(298,28,l),
(291,28,o),
(281,28,o),
(267,28,cs),
(245,28,o),
(227,61,o),
(227,108,cs),
(227,138,o),
(227,591,o),
(227,612,cs),
(227,647,o),
(249,672,o),
(277,672,cs),
(320,672,l),
(320,700,l),
(33,700,l),
(33,672,l),
(41,672,o),
(48,672,o),
(58,672,cs),
(97,672,o),
(127,662,o),
(127,649,cs),
(127,595,o),
(127,164,o),
(127,132,cs),
(127,71,o),
(95,28,o),
(54,28,cs),
(35,28,l),
(35,0,l)
);
}
);
width = 354;
},
{
layerId = m002;
shapes = (
{
closed = 1;
nodes = (
(301,0,l),
(301,38,l),
(294,38,o),
(284,38,o),
(270,38,cs),
(248,38,o),
(230,61,o),
(230,108,cs),
(230,138,o),
(230,591,o),
(230,612,cs),
(230,637,o),
(252,662,o),
(280,662,cs),
(323,662,l),
(323,700,l),
(36,700,l),
(36,662,l),
(44,662,o),
(51,662,o),
(61,662,cs),
(100,662,o),
(130,652,o),
(130,639,cs),
(130,585,o),
(130,164,o),
(130,132,cs),
(130,71,o),
(98,38,o),
(57,38,cs),
(38,38,l),
(38,0,l)
);
}
);
width = 360;
}
);
unicode = 73;
},
{
glyphname = J;
lastChange = "2024-11-09 08:47:37 +0000";
layers = (
{
layerId = m01;
shapes = (
{
closed = 1;
nodes = (
(153,-373,o),
(227,-294,o),
(227,-183,cs),
(227,-92,o),
(227,570,o),
(227,611,cs),
(227,649,o),
(265,674,o),
(318,672,cs),
(347,671,l),
(347,700,l),
(38,700,l),
(38,671,l),
(47,671,o),
(54,672,o),
(65,672,cs),
(101,672,o),
(127,654,o),
(127,628,cs),
(127,591,o),
(127,-217,o),
(127,-254,cs),
(127,-306,o),
(95,-342,o),
(51,-342,cs),
(1,-342,o),
(-34,-320,o),
(-34,-288,cs),
(-34,-262,o),
(-20,-256,o),
(-20,-239,cs),
(-20,-227,o),
(-37,-219,o),
(-61,-219,cs),
(-89,-219,o),
(-108,-249,o),
(-108,-292,cs),
(-108,-339,o),
(-44,-373,o),
(46,-373,cs)
);
}
);
width = 336;
},
{
layerId = m002;
shapes = (
{
closed = 1;
nodes = (
(156,-373,o),
(230,-294,o),
(230,-183,cs),
(230,-92,o),
(230,570,o),
(230,611,cs),
(230,649,o),
(268,664,o),
(321,662,cs),
(350,661,l),
(350,700,l),
(41,700,l),
(41,661,l),
(50,661,o),
(57,662,o),
(68,662,cs),
(104,662,o),
(130,654,o),
(130,628,cs),
(130,591,o),
(130,-207,o),
(130,-244,cs),
(130,-296,o),
(98,-332,o),
(54,-332,cs),
(4,-332,o),
(-31,-310,o),
(-31,-278,cs),
(-31,-252,o),
(-17,-256,o),
(-17,-239,cs),
(-17,-227,o),
(-34,-219,o),
(-58,-219,cs),
(-86,-219,o),
(-105,-249,o),
(-105,-292,cs),
(-105,-339,o),
(-41,-373,o),
(49,-373,cs)
);
}
);
width = 342;
}
);
metricRight = n;
unicode = 74;
},
{
glyphname = K;
lastChange = "2024-11-09 08:47:37 +0000";
layers = (
{
layerId = m01;
shapes = (
{
closed = 1;
nodes = (
(739,0,l),
(739,28,l),
(732,28,ls),
(704,28,o),
(669,57,o),
(627,99,cs),
(318,410,l),
(399,489,o),
(481,568,o),
(499,589,cs),
(527,621,o),
(596,659,o),
(621,659,cs),
(668,659,l),
(668,696,l),
(403,696,l),
(403,660,l),
(431,660,ls),
(440,660,o),
(480,631,o),
(447,589,c),
(226,358,l),
(226,468,o),
(228,575,o),
(228,594,cs),
(228,640,o),
(249,672,o),
(275,672,cs),
(309,672,l),
(309,700,l),
(57,700,l),
(57,672,l),
(85,672,ls),
(108,672,o),
(127,655,o),
(127,630,cs),
(127,83,ls),
(127,51,o),
(109,28,o),
(88,28,cs),
(72,28,l),
(72,0,l),
(324,0,l),
(324,28,l),
(293,28,ls),
(255,28,o),
(228,52,o),
(228,87,cs),
(226,318,l),
(241,333,l),
(528,36,ls),
(548,15,o),
(572,0,o),
(588,0,cs)
);
}
);
width = 748;
},
{
associatedMasterId = m01;
layerId = "8467409C-0914-4D46-BCF0-A4BD11655239";
name = "3. Nov. 24, 11:35";
shapes = (
{
closed = 1;
nodes = (
(739,0,l),
(739,28,l),
(732,28,ls),
(704,28,o),
(669,57,o),
(627,99,cs),
(307,421,l),
(234,340,l),
(528,36,ls),
(548,15,o),
(572,0,o),
(588,0,cs)
);
},
{
closed = 1;
nodes = (
(324,0,l),
(324,28,l),
(293,28,ls),
(255,28,o),
(228,52,o),
(228,87,cs),
(228,111,o),
(226,229,o),
(226,345,cs),
(226,460,o),
(228,574,o),
(228,594,cs),
(228,640,o),
(249,672,o),
(275,672,cs),
(309,672,l),
(309,700,l),
(57,700,l),
(57,672,l),
(85,672,ls),
(108,672,o),
(127,655,o),
(127,630,cs),
(127,83,ls),
(127,51,o),
(109,28,o),
(88,28,cs),
(72,28,l),
(72,0,l)
);
},
{
closed = 1;
nodes = (
(297,391,o),
(471,557,o),
(499,589,cs),
(527,621,o),
(596,659,o),
(621,659,cs),
(668,659,l),
(668,696,l),
(403,696,l),
(403,660,l),
(431,660,ls),
(440,660,o),
(480,631,o),
(447,589,c),
(187,317,l),
(201,292,l)
);
}
);
width = 748;
},
{
layerId = m002;
shapes = (
{
closed = 1;
nodes = (
(742,0,l),
(742,38,l),
(735,38,ls),
(707,38,o),
(673,58,o),
(630,99,cs),
(321,400,l),
(402,479,o),
(482,569,o),
(502,589,cs),
(534,622,o),
(581,662,o),
(624,662,cs),
(671,662,l),
(671,700,l),
(406,700,l),
(406,662,l),
(434,662,ls),
(480,662,o),
(485,631,o),
(449,589,c),
(228,358,l),
(228,468,o),
(231,575,o),
(231,594,cs),
(231,640,o),
(252,662,o),
(278,662,cs),
(312,662,l),
(312,700,l),
(60,700,l),
(60,662,l),
(88,662,ls),
(111,662,o),
(130,645,o),
(130,630,cs),
(130,83,ls),
(130,51,o),
(112,38,o),
(91,38,cs),
(75,38,l),
(75,0,l),
(327,0,l),
(327,38,l),
(296,38,ls),
(258,38,o),
(231,52,o),
(231,87,cs),
(229,308,l),
(244,323,l),
(526,36,ls),
(547,15,o),
(575,0,o),
(591,0,cs)
);
}
);
width = 754;
},
{
associatedMasterId = m002;
layerId = "153ECCB4-A823-4232-9515-BDB6977FA8DE";
name = "3. Nov. 24, 11:35";
shapes = (
{
closed = 1;
nodes = (
(739,0,l),
(739,28,l),
(732,28,ls),
(704,28,o),
(669,57,o),
(627,99,cs),
(307,421,l),
(234,340,l),
(528,36,ls),
(548,15,o),
(572,0,o),
(588,0,cs)
);
},
{
closed = 1;
nodes = (
(324,0,l),
(324,28,l),
(293,28,ls),
(255,28,o),
(228,52,o),
(228,87,cs),
(228,111,o),
(226,229,o),
(226,345,cs),
(226,460,o),
(228,574,o),
(228,594,cs),
(228,640,o),
(249,672,o),
(275,672,cs),
(309,672,l),
(309,700,l),
(57,700,l),
(57,672,l),
(85,672,ls),
(108,672,o),
(127,655,o),
(127,630,cs),
(127,83,ls),
(127,51,o),
(109,28,o),
(88,28,cs),
(72,28,l),
(72,0,l)
);
},
{
closed = 1;
nodes = (
(297,391,o),
(471,557,o),
(499,589,cs),
(527,621,o),
(596,659,o),
(621,659,cs),
(668,659,l),
(668,696,l),
(403,696,l),
(403,660,l),
(431,660,ls),
(440,660,o),
(480,631,o),
(447,589,c),
(187,317,l),
(201,292,l)
);
}
);
width = 748;
}
);
metricLeft = n;
unicode = 75;
},
{
glyphname = L;
lastChange = "2024-11-09 08:47:37 +0000";
layers = (
{
layerId = m01;
shapes = (
{
closed = 1;
nodes = (
(605,0,l),
(673,162,l),
(641,169,l),
(610,91,o),
(547,35,o),
(487,35,cs),
(418,35,o),
(324,35,o),
(301,35,cs),
(261,35,o),
(227,74,o),
(227,130,cs),
(227,179,o),
(227,558,o),
(227,608,cs),
(227,645,o),
(280,672,o),
(349,672,cs),
(369,672,l),
(369,700,l),
(14,700,l),
(14,672,l),
(40,672,l),
(89,672,o),
(127,636,o),
(127,584,cs),
(127,533,o),
(127,166,o),
(127,125,cs),
(127,72,o),
(105,35,o),
(79,35,cs),
(61,35,o),
(30,35,o),
(16,35,c),
(16,0,l)
);
}
);
width = 709;
},
{
layerId = m002;
shapes = (
{
closed = 1;
nodes = (
(608,0,l),
(676,162,l),
(634,169,l),
(603,91,o),
(550,45,o),
(490,45,cs),
(421,45,o),
(327,45,o),
(304,45,cs),
(264,45,o),
(230,74,o),
(230,130,cs),
(230,179,o),
(230,558,o),
(230,608,cs),
(230,645,o),
(283,662,o),
(352,662,cs),
(372,662,l),
(372,700,l),
(17,700,l),
(17,662,l),
(43,662,l),
(92,662,o),
(130,636,o),
(130,584,cs),
(130,533,o),
(130,166,o),
(130,125,cs),
(130,72,o),
(108,45,o),
(82,45,cs),
(64,45,o),
(33,45,o),
(19,45,c),
(19,0,l)
);
}
);
width = 715;
}
);
metricLeft = n;
metricRight = n;
unicode = 76;
},
{
glyphname = M;
lastChange = "2024-11-09 08:47:37 +0000";
layers = (
{
layerId = m01;
shapes = (
{
closed = 1;
nodes = (
(432,0,l),
(721,640,l),
(704,700,l),
(456,150,l),
(232,700,l),
(12,700,l),
(12,659,l),
(33,659,o),
(62,659,o),
(86,659,cs),
(118,659,o),
(161,609,o),
(190,538,cs),
(409,0,l)
);
},
{
closed = 1;
nodes = (
(270,0,l),
(270,27,l),
(260,27,o),
(252,27,o),
(241,27,cs),
(189,27,o),
(153,54,o),
(153,92,cs),
(153,656,l),
(127,656,l),
(127,484,o),
(127,187,o),
(127,141,cs),
(127,74,o),
(97,27,o),
(55,27,cs),
(11,27,l),
(11,0,l)
);
},
{
closed = 1;
nodes = (
(910,0,l),
(910,28,l),
(899,28,o),
(891,28,o),
(878,28,cs),
(833,28,o),
(803,53,o),
(803,88,cs),
(803,126,o),
(803,580,o),
(803,611,cs),
(803,640,o),
(821,660,o),
(847,660,cs),
(888,660,l),
(888,700,l),
(703,700,l),
(703,498,o),
(703,114,o),
(703,91,cs),
(703,54,o),
(695,28,o),
(682,28,cs),
(603,28,l),
(601,0,l)
);
}
);
width = 930;
},
{
layerId = m002;
shapes = (
{
closed = 1;
nodes = (
(445,0,l),
(734,640,l),
(717,700,l),
(469,150,l),
(245,700,l),
(25,700,l),
(25,662,l),
(46,662,o),
(75,662,o),
(99,662,cs),
(131,662,o),
(174,609,o),
(203,538,cs),
(422,0,l)
);
},
{
closed = 1;
nodes = (
(283,0,l),
(283,37,l),
(273,37,o),
(265,37,o),
(254,37,cs),
(202,37,o),
(166,54,o),
(166,92,cs),
(166,656,l),
(130,656,l),
(130,484,o),
(130,187,o),
(130,141,cs),
(130,74,o),
(110,37,o),
(68,37,cs),
(24,37,l),
(24,0,l)
);
},
{
closed = 1;
nodes = (
(923,0,l),
(923,38,l),
(912,38,o),
(904,38,o),
(891,38,cs),
(846,38,o),
(816,53,o),
(816,88,cs),
(816,126,o),
(816,580,o),
(816,611,cs),
(816,640,o),
(834,662,o),
(860,662,cs),
(901,662,l),
(901,700,l),
(716,700,l),
(716,498,o),
(716,114,o),
(716,91,cs),
(716,54,o),
(708,38,o),
(695,38,cs),
(616,38,l),
(614,0,l)
);
}
);
width = 946;
}
);
metricLeft = n;
metricRight = n;
unicode = 77;
},
{
glyphname = N;
lastChange = "2024-11-09 08:47:37 +0000";
layers = (
{
layerId = m01;
shapes = (
{
closed = 1;
nodes = (
(721,-6,l),
(721,189,o),
(721,535,o),
(721,579,cs),
(721,633,o),
(757,672,o),
(809,672,cs),
(848,672,l),
(848,700,l),
(530,700,l),
(530,672,l),
(541,672,o),
(582,672,o),
(596,672,cs),
(639,672,o),
(669,640,o),
(669,594,cs),
(669,164,l),
(185,700,l),
(-5,697,l),
(-5,669,l),
(8,669,o),
(19,669,o),
(33,669,cs),
(59,669,o),
(91,654,o),
(110,634,cs),
(688,-6,l)
);
},
{
closed = 1;
nodes = (
(316,0,l),
(316,27,l),
(256,27,o),
(252,27,o),
(241,27,cs),
(189,27,o),
(153,54,o),
(153,92,cs),
(153,656,l),
(127,656,l),
(127,484,o),
(127,187,o),
(127,141,cs),
(127,74,o),
(97,27,o),
(55,27,cs),
(25,27,l),
(25,0,l)
);
}
);
width = 830;
},
{
layerId = m002;
shapes = (
{
closed = 1;
nodes = (
(734,-6,l),
(734,189,o),
(734,535,o),
(734,579,cs),
(734,633,o),
(770,662,o),
(822,662,cs),
(861,662,l),
(861,700,l),
(543,700,l),
(543,662,l),
(554,662,o),
(595,662,o),
(609,662,cs),
(652,662,o),
(682,640,o),
(682,594,cs),
(682,164,l),
(198,700,l),
(8,697,l),
(8,659,l),
(21,659,o),
(32,659,o),
(46,659,cs),
(72,659,o),
(104,654,o),
(123,634,cs),
(701,-6,l)
);
},
{
closed = 1;
nodes = (
(329,0,l),
(329,37,l),
(269,37,o),
(265,37,o),
(254,37,cs),
(202,37,o),
(166,64,o),
(166,92,cs),
(166,656,l),
(130,656,l),
(130,484,o),
(130,187,o),
(130,141,cs),
(130,74,o),
(110,37,o),
(68,37,cs),
(38,37,l),
(38,0,l)
);
}
);
width = 846;
}
);
metricLeft = n;
metricRight = n;
unicode = 78;
},
{
glyphname = O;
lastChange = "2024-11-10 11:52:58 +0000";
layers = (
{
anchors = (
{
name = bottom;
pos = (451,0);
},
{
name = center;
pos = (451,350);
},
{
name = ogonek;
pos = (812,10);
},
{
name = top;
pos = (451,700);
},
{
name = topleft;
pos = (20,700);
},
{
name = topright;
pos = (882,700);
}
);
layerId = m01;
shapes = (
{
closed = 1;
nodes = (
(675,-11,o),
(838,145,o),
(838,365,cs),
(838,572,o),
(676,719,o),
(448,719,cs),
(223,719,o),
(64,572,o),
(64,365,cs),
(64,145,o),
(221,-11,o),
(444,-11,cs)
);
},
{
closed = 1;
nodes = (
(308,19,o),
(198,179,o),
(198,405,cs),
(198,571,o),
(298,689,o),
(440,689,cs),
(595,689,o),
(705,539,o),
(705,326,cs),
(705,146,o),
(605,19,o),
(463,19,c)
);
}
);
width = 902;
},
{
anchors = (
{
name = bottom;
pos = (454,0);
},
{
name = center;
pos = (454,350);
},
{
name = ogonek;
pos = (817,10);
},
{
name = top;
pos = (454,700);
},
{
name = topleft;
pos = (20,700);
},
{
name = topright;
pos = (888,700);
}
);
layerId = m002;
shapes = (
{
closed = 1;
nodes = (
(678,-11,o),
(841,145,o),
(841,365,cs),
(841,572,o),
(679,719,o),
(451,719,cs),
(226,719,o),
(67,572,o),
(67,365,cs),
(67,145,o),
(224,-11,o),
(447,-11,cs)
);
},
{
closed = 1;
nodes = (
(311,29,o),
(201,179,o),
(201,405,cs),
(201,571,o),
(301,679,o),
(443,679,cs),
(598,679,o),
(708,539,o),
(708,326,cs),
(708,146,o),
(608,29,o),
(466,29,c)
);
}
);
width = 908;
}
);
metricLeft = o;
metricRight = o;
unicode = 79;
},
{
glyphname = OE;
lastChange = "2024-11-09 08:47:37 +0000";
layers = (
{
layerId = m01;
shapes = (
{
closed = 1;
nodes = (
(609,-11,o),
(754,136,o),
(754,345,cs),
(754,564,o),
(610,719,o),
(406,719,cs),
(206,719,o),
(64,564,o),
(64,345,cs),
(64,136,o),
(204,-11,o),
(403,-11,cs)
);
},
{
closed = 1;
nodes = (
(287,19,o),
(193,171,o),
(193,385,cs),
(193,563,o),
(278,689,o),
(399,689,cs),
(531,689,o),
(625,530,o),
(625,306,cs),
(625,138,o),
(540,19,o),
(420,19,c)
);
},
{
closed = 1;
nodes = (
(989,200,l),
(985,277,o),
(985,385,o),
(989,462,c),
(961,462,l),
(961,399,o),
(935,354,o),
(898,354,cs),
(689,354,l),
(698,304,l),
(761,304,o),
(883,304,o),
(908,304,cs),
(940,304,o),
(962,261,o),
(962,200,c)
);
},
{
closed = 1;
nodes = (
(494,-1,l),
(1078,-1,l),
(1157,163,l),
(1132,178,l),
(1088,105,o),
(1024,54,o),
(977,54,cs),
(965,54,o),
(614,54,o),
(564,54,c)
);
},
{
closed = 1;
nodes = (
(525,645,l),
(562,645,o),
(937,645,o),
(945,645,cs),
(1006,645,o),
(1050,598,o),
(1050,531,c),
(1078,531,l),
(1078,700,l),
(1011,700,o),
(546,700,o),
(495,700,c)
);
}
);
width = 1202;
},
{
layerId = m002;
shapes = (
{
closed = 1;
nodes = (
(612,-11,o),
(757,136,o),
(757,345,cs),
(757,564,o),
(613,719,o),
(409,719,cs),
(209,719,o),
(67,564,o),
(67,345,cs),
(67,136,o),
(207,-11,o),
(406,-11,cs)
);
},
{
closed = 1;
nodes = (
(290,29,o),
(196,171,o),
(196,385,cs),
(196,563,o),
(281,679,o),
(402,679,cs),
(534,679,o),
(628,530,o),
(628,306,cs),
(628,138,o),
(543,29,o),
(423,29,c)
);
},
{
closed = 1;
nodes = (
(1002,200,l),
(998,277,o),
(998,385,o),
(1002,462,c),
(964,462,l),
(964,399,o),
(938,354,o),
(901,354,cs),
(692,354,l),
(701,304,l),
(764,304,o),
(886,304,o),
(911,304,cs),
(943,304,o),
(965,261,o),
(965,200,c)
);
},
{
closed = 1;
nodes = (
(497,-1,l),
(1081,-1,l),
(1160,163,l),
(1125,178,l),
(1081,105,o),
(1027,59,o),
(980,59,cs),
(968,59,o),
(617,59,o),
(567,59,c)
);
},
{
closed = 1;
nodes = (
(528,640,l),
(565,640,o),
(940,640,o),
(948,640,cs),
(1009,640,o),
(1043,598,o),
(1043,531,c),
(1081,531,l),
(1081,700,l),
(1014,700,o),
(549,700,o),
(498,700,c)
);
}
);
width = 1208;
}
);
metricLeft = O;
metricRight = E;
unicode = 338;
},
{
glyphname = P;
lastChange = "2024-11-09 08:47:37 +0000";
layers = (
{
layerId = m01;
shapes = (
{
closed = 1;
nodes = (
(340,0,l),
(340,28,l),
(333,28,o),
(310,28,o),
(300,28,cs),
(260,28,o),
(227,57,o),
(227,98,cs),
(227,148,o),
(227,626,o),
(227,642,cs),
(227,657,o),
(252,667,o),
(280,667,cs),
(384,667,o),
(458,595,o),
(458,486,cs),
(458,382,o),
(396,309,o),
(308,309,c),
(308,279,l),
(466,279,o),
(577,369,o),
(577,497,cs),
(577,616,o),
(472,702,o),
(323,702,cs),
(269,702,o),
(185,699,o),
(157,699,cs),
(141,699,o),
(87,702,o),
(27,702,c),
(27,672,l),
(82,672,o),
(127,653,o),
(127,625,cs),
(127,579,o),
(127,81,o),
(127,63,cs),
(127,43,o),
(104,28,o),
(81,28,cs),
(44,28,l),
(44,0,l)
);
}
);
width = 604;
},
{
layerId = m002;
shapes = (
{
closed = 1;
nodes = (
(343,0,l),
(343,38,l),
(336,38,o),
(313,38,o),
(303,38,cs),
(263,38,o),
(230,57,o),
(230,98,cs),
(230,148,o),
(230,616,o),
(230,632,cs),
(230,647,o),
(255,657,o),
(283,657,cs),
(387,657,o),
(461,595,o),
(461,486,cs),
(461,382,o),
(399,319,o),
(311,319,c),
(311,279,l),
(469,279,o),
(580,369,o),
(580,497,cs),
(580,616,o),
(475,702,o),
(326,702,cs),
(272,702,o),
(188,699,o),
(160,699,cs),
(144,699,o),
(90,702,o),
(30,702,c),
(30,662,l),
(85,662,o),
(130,653,o),
(130,625,cs),
(130,579,o),
(130,81,o),
(130,63,cs),
(130,43,o),
(107,38,o),
(84,38,cs),
(47,38,l),
(47,0,l)
);
}
);
width = 610;
}
);
unicode = 80;
},
{
glyphname = Q;
lastChange = "2024-11-09 08:47:37 +0000";
layers = (
{
layerId = m01;
shapes = (
{
closed = 1;
nodes = (
(675,-18,o),
(838,138,o),
(838,358,cs),
(838,565,o),
(676,712,o),
(448,712,cs),
(223,712,o),
(64,565,o),
(64,358,cs),
(64,138,o),
(221,-18,o),
(444,-18,cs)
);
},
{
closed = 1;
nodes = (
(463,12,c),
(308,12,o),
(198,172,o),
(198,398,cs),
(198,564,o),
(298,682,o),
(440,682,cs),
(595,682,o),
(705,532,o),
(705,319,cs),
(705,139,o),
(605,12,o)
);
},
{
closed = 1;
nodes = (
(1083,-175,o),
(1127,-171,o),
(1156,-165,c),
(1156,-140,l),
(903,-153,o),
(665,-84,o),
(581,27,c),
(527,8,o),
(478,-5,o),
(463,-5,cs),
(432,-5,o),
(376,13,o),
(329,38,c),
(335,8,l),
(502,-99,o),
(799,-175,o),
(1050,-175,c)
);
}
);
width = 902;
},
{
layerId = m002;
shapes = (
{
closed = 1;
nodes = (
(678,-18,o),
(841,138,o),
(841,358,cs),
(841,565,o),
(679,712,o),
(451,712,cs),
(226,712,o),
(67,565,o),
(67,358,cs),
(67,138,o),
(224,-18,o),
(447,-18,cs)
);
},
{
closed = 1;
nodes = (
(466,22,c),
(311,22,o),
(201,172,o),
(201,398,cs),
(201,564,o),
(301,672,o),
(443,672,cs),
(598,672,o),
(708,532,o),
(708,319,cs),
(708,139,o),
(608,22,o)
);
},
{
closed = 1;
nodes = (
(1086,-175,o),
(1130,-171,o),
(1159,-165,c),
(1159,-130,l),
(906,-143,o),
(668,-84,o),
(584,27,c),
(530,8,o),
(481,-5,o),
(466,-5,cs),
(435,-5,o),
(379,13,o),
(332,38,c),
(338,8,l),
(505,-99,o),
(802,-175,o),
(1053,-175,c)
);
}
);
width = 908;
}
);
metricLeft = O;
unicode = 81;
},
{
glyphname = R;
lastChange = "2024-11-09 08:47:37 +0000";
layers = (
{
layerId = m01;
shapes = (
{
closed = 1;
nodes = (
(657,-3,o),
(723,-2,o),
(753,0,c),
(753,29,l),
(752,28,o),
(735,28,o),
(713,28,cs),
(687,28,o),
(631,46,o),
(611,71,cs),
(481,231,o),
(377,345,o),
(360,362,c),
(380,328,l),
(504,352,o),
(592,439,o),
(592,537,cs),
(592,627,o),
(493,700,o),
(353,700,cs),
(312,700,o),
(200,698,o),
(170,698,cs),
(119,698,o),
(69,700,o),
(18,700,c),
(18,672,l),
(25,672,o),
(24,672,o),
(39,672,cs),
(86,672,o),
(127,639,o),
(127,593,cs),
(127,539,o),
(127,103,o),
(127,73,cs),
(127,47,o),
(100,28,o),
(72,28,cs),
(40,28,l),
(40,0,l),
(320,0,l),
(320,28,l),
(306,28,o),
(287,28,o),
(257,28,cs),
(243,28,o),
(227,46,o),
(227,72,cs),
(227,116,o),
(227,588,o),
(227,625,cs),
(227,648,o),
(251,665,o),
(276,665,cs),
(300,665,o),
(316,665,o),
(339,665,cs),
(415,665,o),
(468,601,o),
(468,517,cs),
(468,426,o),
(393,362,o),
(287,362,cs),
(173,362,l),
(173,327,l),
(278,327,l),
(355,219,o),
(442,114,o),
(488,60,cs),
(519,23,o),
(559,-3,o),
(593,-3,cs)
);
}
);
width = 762;
},
{
layerId = m002;
shapes = (
{
closed = 1;
nodes = (
(660,-3,o),
(726,-2,o),
(756,0,c),
(756,39,l),
(755,38,o),
(738,38,o),
(716,38,cs),
(690,38,o),
(634,56,o),
(614,81,cs),
(484,241,o),
(380,345,o),
(363,362,c),
(383,328,l),
(507,352,o),
(595,439,o),
(595,537,cs),
(595,627,o),
(496,700,o),
(356,700,cs),
(315,700,o),
(203,698,o),
(173,698,cs),
(122,698,o),
(72,700,o),
(21,700,c),
(21,662,l),
(28,662,o),
(27,662,o),
(42,662,cs),
(89,662,o),
(130,639,o),
(130,593,cs),
(130,539,o),
(130,103,o),
(130,73,cs),
(130,47,o),
(103,38,o),
(75,38,cs),
(43,38,l),
(43,0,l),
(323,0,l),
(323,38,l),
(309,38,o),
(290,38,o),
(260,38,cs),
(246,38,o),
(230,56,o),
(230,72,cs),
(230,116,o),
(230,588,o),
(230,625,cs),
(230,638,o),
(254,655,o),
(279,655,cs),
(303,655,o),
(319,655,o),
(342,655,cs),
(418,655,o),
(471,601,o),
(471,517,cs),
(471,426,o),
(396,372,o),
(290,372,cs),
(176,372,l),
(176,327,l),
(281,327,l),
(358,219,o),
(445,114,o),
(491,60,cs),
(522,23,o),
(562,-3,o),
(596,-3,cs)
);
}
);
width = 768;
}
);
unicode = 82;
},
{
glyphname = S;
lastChange = "2024-11-09 08:47:37 +0000";
layers = (
{
layerId = m01;
shapes = (
{
closed = 1;
nodes = (
(410,-16,o),
(514,71,o),
(514,194,cs),
(514,395,o),
(182,384,o),
(182,563,cs),
(182,633,o),
(234,682,o),
(300,682,cs),
(377,682,o),
(443,618,o),
(460,527,c),
(476,527,l),
(476,704,l),
(451,704,l),
(434,673,l),
(406,696,o),
(352,712,o),
(302,712,cs),
(171,712,o),
(78,634,o),
(78,524,cs),
(78,329,o),
(409,334,o),
(409,148,cs),
(409,70,o),
(348,14,o),
(266,14,cs),
(164,14,o),
(90,95,o),
(88,209,c),
(55,209,l),
(55,100,l),
(96,32,o),
(182,-16,o),
(262,-16,cs)
);
}
);
width = 578;
},
{
layerId = m002;
shapes = (
{
closed = 1;
nodes = (
(413,-16,o),
(517,71,o),
(517,194,cs),
(517,395,o),
(185,384,o),
(185,563,cs),
(185,633,o),
(237,672,o),
(303,672,cs),
(380,672,o),
(436,618,o),
(453,527,c),
(479,527,l),
(479,704,l),
(454,704,l),
(437,673,l),
(409,696,o),
(355,712,o),
(305,712,cs),
(174,712,o),
(81,634,o),
(81,524,cs),
(81,329,o),
(412,334,o),
(412,148,cs),
(412,70,o),
(351,24,o),
(269,24,cs),
(167,24,o),
(103,95,o),
(101,209,c),
(58,209,l),
(58,100,l),
(99,32,o),
(185,-16,o),
(265,-16,cs)
);
}
);
width = 584;
}
);
metricLeft = n;
metricRight = n;
unicode = 83;
},
{
glyphname = T;
lastChange = "2024-11-09 08:47:37 +0000";
layers = (
{
layerId = m01;
shapes = (
{
closed = 1;
nodes = (
(514,0,l),
(514,28,l),
(503,28,o),
(495,28,o),
(481,28,cs),
(467,28,o),
(405,32,o),
(405,66,cs),
(405,695,l),
(305,695,l),
(305,497,o),
(305,104,o),
(305,95,cs),
(305,68,o),
(278,24,o),
(241,24,cs),
(213,24,l),
(213,0,l)
);
},
{
closed = 1;
nodes = (
(689,552,l),
(673,713,l),
(629,700,l),
(62,700,l),
(27,711,l),
(9,562,l),
(25,556,l),
(82,665,l),
(608,665,l),
(670,546,l)
);
}
);
width = 698;
},
{
layerId = m002;
shapes = (
{
closed = 1;
nodes = (
(517,0,l),
(517,38,l),
(506,38,o),
(498,38,o),
(484,38,cs),
(470,38,o),
(408,42,o),
(408,66,cs),
(408,695,l),
(308,695,l),
(308,497,o),
(308,104,o),
(308,95,cs),
(308,68,o),
(281,34,o),
(244,34,cs),
(216,34,l),
(216,0,l)
);
},
{
closed = 1;
nodes = (
(692,552,l),
(676,713,l),
(632,700,l),
(65,700,l),
(30,711,l),
(12,562,l),
(38,556,l),
(85,655,l),
(611,655,l),
(663,546,l)
);
}
);
width = 704;
}
);
metricLeft = n;
metricRight = n;
unicode = 84;
},
{
glyphname = U;
lastChange = "2024-11-10 11:52:58 +0000";
layers = (
{
anchors = (
{
name = bottom;
pos = (415,0);
},
{
name = ogonek;
pos = (746,10);
},
{
name = top;
pos = (415,700);
},
{
name = topright;
pos = (809,700);
}
);
layerId = m01;
shapes = (
{
closed = 1;
nodes = (
(602,-11,o),
(743,95,o),
(743,246,cs),
(743,447,o),
(743,578,o),
(743,611,cs),
(743,642,o),
(763,671,o),
(796,671,cs),
(810,671,l),
(810,699,l),
(530,699,l),
(530,671,l),
(567,671,o),
(628,671,o),
(641,671,cs),
(671,671,o),
(693,634,o),
(693,603,cs),
(693,578,o),
(693,256,o),
(693,241,cs),
(693,118,o),
(580,31,o),
(420,31,cs),
(298,31,o),
(198,98,o),
(198,193,cs),
(198,259,o),
(198,606,o),
(198,626,cs),
(198,656,o),
(233,671,o),
(263,671,cs),
(279,671,l),
(279,699,l),
(39,699,l),
(39,671,l),
(46,671,o),
(52,671,o),
(61,671,cs),
(79,671,o),
(98,631,o),
(98,570,cs),
(98,514,o),
(98,244,o),
(98,192,cs),
(98,73,o),
(222,-11,o),
(406,-11,cs)
);
}
);
width = 829;
},
{
anchors = (
{
name = bottom;
pos = (416,0);
},
{
name = ogonek;
pos = (749,10);
},
{
name = top;
pos = (416,700);
},
{
name = topright;
pos = (812,700);
}
);
layerId = m002;
shapes = (
{
closed = 1;
nodes = (
(605,-11,o),
(745,100,o),
(745,256,cs),
(745,457,o),
(745,578,o),
(745,611,cs),
(745,642,o),
(765,661,o),
(798,661,cs),
(812,661,l),
(812,699,l),
(532,699,l),
(532,661,l),
(569,661,o),
(630,661,o),
(643,661,cs),
(673,661,o),
(685,634,o),
(685,603,cs),
(685,578,o),
(685,266,o),
(685,251,cs),
(685,128,o),
(576,41,o),
(422,41,cs),
(292,41,o),
(200,108,o),
(200,203,cs),
(200,269,o),
(200,606,o),
(200,626,cs),
(200,656,o),
(235,661,o),
(265,661,cs),
(281,661,l),
(281,699,l),
(41,699,l),
(41,661,l),
(48,661,o),
(54,661,o),
(63,661,cs),
(81,661,o),
(100,631,o),
(100,570,cs),
(100,514,o),
(100,254,o),
(100,202,cs),
(100,77,o),
(228,-11,o),
(408,-11,cs)
);
}
);
width = 832;
}
);
metricLeft = n;
metricRight = n;
unicode = 85;
},
{
glyphname = V;
lastChange = "2024-11-09 08:47:37 +0000";
layers = (
{
layerId = m01;
shapes = (
{
closed = 1;
nodes = (
(388,0,l),
(617,641,ls),
(623,657,o),
(646,669,o),
(672,669,cs),
(714,669,l),
(714,700,l),
(484,700,l),
(484,669,l),
(538,669,ls),
(562,669,o),
(573,658,o),
(567,641,cs),
(392,150,l),
(190,621,ls),
(177,651,o),
(197,672,o),
(227,672,cs),
(279,672,l),
(279,700,l),
(9,700,l),
(9,672,l),
(43,672,ls),
(57,672,o),
(76,653,o),
(88,627,c),
(354,-12,l)
);
}
);
width = 723;
},
{
layerId = m002;
shapes = (
{
closed = 1;
nodes = (
(391,0,l),
(620,641,ls),
(626,657,o),
(649,659,o),
(675,659,cs),
(717,659,l),
(717,700,l),
(487,700,l),
(487,659,l),
(541,659,ls),
(565,659,o),
(576,658,o),
(570,641,cs),
(395,150,l),
(193,621,ls),
(180,651,o),
(200,662,o),
(230,662,cs),
(282,662,l),
(282,700,l),
(12,700,l),
(12,662,l),
(46,662,ls),
(60,662,o),
(79,653,o),
(91,627,c),
(357,-12,l)
);
}
);
width = 729;
}
);
unicode = 86;
},
{
glyphname = W;
lastChange = "2024-11-09 08:47:37 +0000";
layers = (
{
layerId = m01;
shapes = (
{
closed = 1;
nodes = (
(718,0,l),
(927,641,ls),
(932,657,o),
(956,669,o),
(982,669,cs),
(1024,669,l),
(1024,700,l),
(837,700,l),
(837,669,l),
(848,669,ls),
(872,669,o),
(882,658,o),
(877,641,cs),
(734,167,l),
(587,616,ls),
(577,646,o),
(587,672,o),
(617,672,cs),
(649,672,l),
(649,700,l),
(399,700,l),
(399,672,l),
(433,672,ls),
(447,672,o),
(466,653,o),
(478,627,c),
(684,-12,l)
);
},
{
closed = 1;
nodes = (
(328,0,l),
(568,672,l),
(518,672,l),
(345,164,l),
(195,621,ls),
(185,651,o),
(197,672,o),
(227,672,cs),
(259,672,l),
(259,700,l),
(9,700,l),
(9,672,l),
(43,672,ls),
(57,672,o),
(76,653,o),
(88,627,c),
(294,-12,l)
);
}
);
width = 1033;
},
{
layerId = m002;
shapes = (
{
closed = 1;
nodes = (
(721,0,l),
(930,641,ls),
(932,648,o),
(959,659,o),
(985,659,cs),
(1027,659,l),
(1027,700,l),
(840,700,l),
(840,659,l),
(851,659,ls),
(875,659,o),
(883,649,o),
(880,641,cs),
(735,187,l),
(590,616,ls),
(580,646,o),
(590,662,o),
(620,662,cs),
(652,662,l),
(652,700,l),
(402,700,l),
(402,662,l),
(436,662,ls),
(450,662,o),
(469,653,o),
(481,627,c),
(687,-12,l)
);
},
{
closed = 1;
nodes = (
(331,0,l),
(571,662,l),
(521,662,l),
(346,184,l),
(198,621,ls),
(188,651,o),
(200,662,o),
(230,662,cs),
(262,662,l),
(262,700,l),
(12,700,l),
(12,662,l),
(46,662,ls),
(60,662,o),
(79,653,o),
(91,627,c),
(297,-12,l)
);
}
);
width = 1039;
}
);
unicode = 87;
},
{
glyphname = X;
lastChange = "2024-11-09 08:47:37 +0000";
layers = (
{
layerId = m01;
shapes = (
{
closed = 1;
nodes = (
(722,0,l),
(722,28,l),
(692,28,l),
(675,28,o),
(638,49,o),
(618,79,cs),
(501,259,o),
(343,493,o),
(232,642,cs),
(219,660,o),
(230,672,o),
(257,672,cs),
(319,672,l),
(319,700,l),
(39,700,l),
(39,672,l),
(51,672,l),
(72,672,o),
(104,662,o),
(113,649,cs),
(146,601,o),
(466,132,o),
(477,116,cs),
(511,64,o),
(500,28,o),
(466,28,cs),
(422,28,l),
(422,0,l)
);
},
{
closed = 1;
nodes = (
(287,0,l),
(287,28,l),
(278,28,o),
(279,28,o),
(260,28,cs),
(200,28,o),
(177,59,o),
(205,104,cs),
(212,115,o),
(291,215,o),
(396,346,c),
(374,369,l),
(312,290,o),
(211,166,o),
(131,70,cs),
(110,45,o),
(63,28,o),
(18,28,c),
(18,0,l)
);
},
{
closed = 1;
nodes = (
(643,651,l),
(654,665,o),
(670,672,o),
(685,672,cs),
(726,672,l),
(726,700,l),
(455,700,l),
(455,672,l),
(469,672,o),
(480,672,o),
(530,672,cs),
(565,672,o),
(574,633,o),
(536,579,cs),
(502,530,o),
(494,520,o),
(374,359,c),
(396,336,l)
);
}
);
width = 744;
},
{
layerId = m002;
shapes = (
{
closed = 1;
nodes = (
(725,0,l),
(725,38,l),
(695,38,l),
(678,38,o),
(641,59,o),
(621,89,cs),
(504,269,o),
(346,483,o),
(235,632,cs),
(222,650,o),
(233,662,o),
(260,662,cs),
(322,662,l),
(322,700,l),
(42,700,l),
(42,662,l),
(54,662,l),
(75,662,o),
(107,652,o),
(116,639,cs),
(149,591,o),
(469,132,o),
(480,116,cs),
(514,64,o),
(503,38,o),
(469,38,cs),
(425,38,l),
(425,0,l)
);
},
{
closed = 1;
nodes = (
(290,0,l),
(290,38,l),
(281,38,o),
(282,38,o),
(263,38,cs),
(203,38,o),
(180,59,o),
(208,104,cs),
(215,115,o),
(297,210,o),
(402,341,c),
(372,374,l),
(310,295,o),
(214,176,o),
(134,80,cs),
(113,55,o),
(66,38,o),
(21,38,c),
(21,0,l)
);
},
{
closed = 1;
nodes = (
(646,641,l),
(657,655,o),
(673,662,o),
(688,662,cs),
(729,662,l),
(729,700,l),
(458,700,l),
(458,662,l),
(472,662,o),
(483,662,o),
(533,662,cs),
(568,662,o),
(577,633,o),
(539,579,cs),
(505,530,o),
(492,525,o),
(372,364,c),
(402,331,l)
);
}
);
width = 750;
}
);
metricLeft = n;
metricRight = n;
unicode = 88;
},
{
glyphname = Y;
lastChange = "2024-11-09 08:47:37 +0000";
layers = (
{
layerId = m01;
shapes = (
{
closed = 1;
nodes = (
(474,0,l),
(474,28,l),
(463,28,o),
(455,28,o),
(441,28,cs),
(427,28,o),
(365,32,o),
(365,66,cs),
(365,314,l),
(265,314,l),
(265,95,l),
(265,68,o),
(238,24,o),
(201,24,cs),
(173,24,l),
(173,0,l)
);
},
{
closed = 1;
nodes = (
(365,319,l),
(202,632,l),
(189,660,o),
(202,672,o),
(230,672,cs),
(319,672,l),
(319,700,l),
(9,700,l),
(9,672,l),
(51,672,l),
(62,672,o),
(80,662,o),
(89,649,c),
(271,292,l)
);
},
{
closed = 1;
nodes = (
(553,651,l),
(563,663,o),
(580,672,o),
(595,672,cs),
(636,672,l),
(636,700,l),
(425,700,l),
(425,672,l),
(480,672,l),
(498,672,o),
(502,655,o),
(490,630,cs),
(326,314,l),
(365,314,l)
);
}
);
width = 645;
},
{
layerId = m002;
shapes = (
{
closed = 1;
nodes = (
(477,0,l),
(477,38,l),
(466,38,o),
(458,38,o),
(444,38,cs),
(430,38,o),
(368,42,o),
(368,66,cs),
(368,314,l),
(268,314,l),
(268,95,l),
(268,68,o),
(241,34,o),
(204,34,cs),
(176,34,l),
(176,0,l)
);
},
{
closed = 1;
nodes = (
(368,319,l),
(205,632,l),
(192,660,o),
(205,662,o),
(233,662,cs),
(322,662,l),
(322,700,l),
(12,700,l),
(12,662,l),
(54,662,l),
(65,662,o),
(83,662,o),
(92,649,c),
(274,292,l)
);
},
{
closed = 1;
nodes = (
(556,641,l),
(566,653,o),
(583,662,o),
(598,662,cs),
(639,662,l),
(639,700,l),
(428,700,l),
(428,662,l),
(483,662,l),
(501,662,o),
(507,655,o),
(493,630,cs),
(315,314,l),
(368,314,l)
);
}
);
width = 651;
}
);
unicode = 89;
},
{
glyphname = Z;
lastChange = "2024-11-09 08:47:37 +0000";
layers = (
{
layerId = m01;
shapes = (
{
closed = 1;
nodes = (
(295,0,l),
(295,35,l),
(226,35,ls),
(202,35,o),
(196,52,o),
(212,77,c),
(605,649,l),
(605,700,l),
(134,700,l),
(76,482,l),
(111,476,l),
(158,587,o),
(213,665,o),
(242,665,cs),
(460,665,ls),
(484,665,o),
(490,650,o),
(474,628,cs),
(391,516,o),
(214,256,o),
(45,0,c)
);
},
{
closed = 1;
nodes = (
(590,0,l),
(638,212,l),
(607,219,l),
(576,141,o),
(513,35,o),
(453,35,cs),
(367,35,l),
(145,35,l),
(82,35,l),
(82,0,l)
);
}
);
width = 684;
},
{
layerId = m002;
shapes = (
{
closed = 1;
nodes = (
(298,0,l),
(298,45,l),
(229,45,ls),
(205,45,o),
(199,52,o),
(215,77,c),
(608,649,l),
(608,700,l),
(137,700,l),
(79,482,l),
(124,476,l),
(171,587,o),
(216,655,o),
(245,655,cs),
(463,655,ls),
(487,655,o),
(493,650,o),
(477,628,cs),
(394,516,o),
(217,256,o),
(48,0,c)
);
},
{
closed = 1;
nodes = (
(593,0,l),
(641,212,l),
(600,219,l),
(569,141,o),
(516,45,o),
(456,45,cs),
(370,45,l),
(148,45,l),
(85,45,l),
(85,0,l)
);
}
);
width = 699;
}
);
unicode = 90;
},
{
color = 4;
glyphname = a;
lastChange = "2024-11-10 11:52:58 +0000";
layers = (
{
anchors = (
{
name = bottom;
pos = (225,0);
},
{
name = ogonek;
pos = (404,10);
},
{
name = top;
pos = (225,435);
}
);
background = {
shapes = (
{
closed = 1;
nodes = (
(69,361,o),
(129,384,o),
(181,384,cs),
(235,384,o),
(274,353,o),
(274,310,cs),
(274,280,o),
(274,124,o),
(274,85,cs),
(274,45,o),
(259,17,o),
(239,17,cs),
(202,17,l),
(202,-8,l),
(444,-8,l),
(444,22,l),
(434,22,o),
(389,22,o),
(383,22,cs),
(369,22,o),
(359,35,o),
(359,54,cs),
(359,98,o),
(356,298,o),
(356,343,cs),
(356,404,o),
(307,447,o),
(237,447,cs),
(170,447,o),
(82,408,o),
(24,353,c),
(35,328,l)
);
}
);
};
layerId = m01;
shapes = (
{
closed = 1;
nodes = (
(391,-12,o),
(438,17,o),
(438,59,cs),
(438,76,l),
(418,76,l),
(418,60,o),
(407,48,o),
(391,48,cs),
(372,48,o),
(358,65,o),
(358,89,cs),
(358,121,o),
(358,305,o),
(358,341,cs),
(358,403,o),
(310,447,o),
(242,447,cs),
(205,447,o),
(154,427,o),
(120,399,cs),
(77,362,o),
(46,319,o),
(46,295,cs),
(46,273,o),
(63,258,o),
(87,258,cs),
(110,258,o),
(127,271,o),
(127,290,cs),
(127,312,o),
(111,313,o),
(111,337,cs),
(111,363,o),
(148,382,o),
(201,382,cs),
(243,382,o),
(273,352,o),
(273,309,cs),
(273,248,o),
(273,93,o),
(273,64,cs),
(273,19,o),
(295,-12,o),
(325,-12,cs)
);
},
{
closed = 1;
nodes = (
(172,-12,o),
(248,15,o),
(297,58,c),
(297,85,l),
(264,43,o),
(217,35,o),
(205,35,cs),
(158,35,o),
(139,64,o),
(139,101,cs),
(139,128,o),
(151,150,o),
(176,163,c),
(312,223,l),
(314,251,l),
(101,157,l),
(68,141,o),
(45,118,o),
(45,85,cs),
(45,29,o),
(73,-12,o),
(133,-12,cs)
);
}
);
width = 449;
},
{
anchors = (
{
name = bottom;
pos = (228,0);
},
{
name = ogonek;
pos = (410,10);
},
{
name = top;
pos = (228,445);
}
);
background = {
shapes = (
{
closed = 1;
nodes = (
(69,361,o),
(129,384,o),
(181,384,cs),
(235,384,o),
(274,353,o),
(274,310,cs),
(274,280,o),
(274,124,o),
(274,85,cs),
(274,45,o),
(259,17,o),
(239,17,cs),
(202,17,l),
(202,-8,l),
(444,-8,l),
(444,22,l),
(434,22,o),
(389,22,o),
(383,22,cs),
(369,22,o),
(359,35,o),
(359,54,cs),
(359,98,o),
(356,298,o),
(356,343,cs),
(356,404,o),
(307,447,o),
(237,447,cs),
(170,447,o),
(82,408,o),
(24,353,c),
(35,328,l)
);
}
);
};
layerId = m002;
shapes = (
{
closed = 1;
nodes = (
(394,-12,o),
(441,17,o),
(441,59,cs),
(441,76,l),
(416,76,l),
(416,60,o),
(410,48,o),
(394,48,cs),
(375,48,o),
(361,65,o),
(361,89,cs),
(361,121,o),
(361,315,o),
(361,351,cs),
(361,413,o),
(313,457,o),
(245,457,cs),
(208,457,o),
(157,437,o),
(123,409,cs),
(80,372,o),
(49,329,o),
(49,305,cs),
(49,283,o),
(66,268,o),
(90,268,cs),
(113,268,o),
(130,281,o),
(130,300,cs),
(130,322,o),
(114,313,o),
(114,337,cs),
(114,363,o),
(151,382,o),
(204,382,cs),
(246,382,o),
(276,362,o),
(276,319,cs),
(276,258,o),
(276,93,o),
(276,64,cs),
(276,19,o),
(298,-12,o),
(328,-12,cs)
);
},
{
closed = 1;
nodes = (
(175,-12,o),
(251,15,o),
(300,58,c),
(300,93,l),
(267,51,o),
(220,45,o),
(208,45,cs),
(161,45,o),
(142,64,o),
(142,101,cs),
(142,128,o),
(154,150,o),
(179,163,c),
(315,223,l),
(317,261,l),
(104,167,l),
(71,151,o),
(48,118,o),
(48,85,cs),
(48,29,o),
(76,-12,o),
(136,-12,cs)
);
}
);
width = 455;
}
);
unicode = 97;
},
{
color = 4;
glyphname = ae;
lastChange = "2024-11-09 08:47:37 +0000";
layers = (
{
background = {
shapes = (
{
closed = 1;
nodes = (
(631,110,l),
(599,77,o),
(548,54,o),
(507,54,cs),
(413,54,o),
(347,128,o),
(347,233,cs),
(347,333,o),
(397,409,o),
(467,409,cs),
(550,409,o),
(527,340,o),
(572,340,cs),
(603,340,o),
(625,355,o),
(625,376,cs),
(625,418,o),
(580,447,o),
(516,447,cs),
(371,447,o),
(268,338,o),
(268,192,c),
(268,73,o),
(346,-12,o),
(456,-12,c),
(518,-12,o),
(599,30,o),
(651,90,c)
);
},
{
closed = 0;
nodes = (
(46,295,ls),
(46,273,o),
(63,258,o),
(87,258,cs),
(110,258,o),
(127,271,o),
(127,290,cs),
(127,312,o),
(111,313,o),
(111,337,cs)
);
}
);
};
layerId = m01;
shapes = (
{
closed = 1;
nodes = (
(198,-15,o),
(259,36,o),
(321,106,c),
(313,116,l),
(270,74,o),
(219,41,o),
(190,41,cs),
(153,41,o),
(127,71,o),
(127,114,cs),
(127,142,o),
(141,174,o),
(171,182,c),
(622,306,l),
(631,309,o),
(638,319,o),
(638,331,cs),
(638,397,o),
(589,443,o),
(520,443,cs),
(438,443,o),
(357,395,o),
(323,326,c),
(358,352,l),
(341,405,o),
(289,443,o),
(234,443,cs),
(199,443,o),
(149,421,o),
(113,391,cs),
(74,356,o),
(46,316,o),
(46,295,cs),
(46,273,o),
(63,258,o),
(87,258,cs),
(110,258,o),
(127,272,o),
(127,291,cs),
(127,305,o),
(110,324,o),
(110,333,cs),
(110,362,o),
(141,382,o),
(185,382,cs),
(242,382,o),
(282,355,o),
(282,318,cs),
(282,290,o),
(282,100,o),
(282,80,cs),
(282,80,o),
(291,89,o),
(291,89,c),
(309,32,o),
(376,-13,o),
(454,-13,cs),
(519,-13,o),
(601,30,o),
(651,90,c),
(631,110,l),
(604,78,o),
(549,55,o),
(499,55,cs),
(416,55,o),
(358,125,o),
(358,225,cs),
(358,331,o),
(404,406,o),
(468,406,c),
(506,406,o),
(534,376,o),
(536,333,cs),
(536,320,o),
(526,307,o),
(513,303,c),
(126,191,l),
(79,176,o),
(45,131,o),
(45,81,cs),
(45,25,o),
(87,-15,o),
(147,-15,cs)
);
}
);
width = 678;
},
{
background = {
shapes = (
{
closed = 1;
nodes = (
(389,-12,o),
(436,17,o),
(436,59,cs),
(436,76,l),
(411,76,l),
(411,60,o),
(405,48,o),
(389,48,cs),
(370,48,o),
(356,65,o),
(356,89,cs),
(356,121,o),
(356,305,o),
(356,341,cs),
(356,403,o),
(308,447,o),
(240,447,cs),
(203,447,o),
(152,427,o),
(118,399,cs),
(75,362,o),
(44,319,o),
(44,295,cs),
(44,273,o),
(61,258,o),
(85,258,cs),
(108,258,o),
(125,271,o),
(125,290,cs),
(125,312,o),
(109,303,o),
(109,327,cs),
(109,353,o),
(146,372,o),
(199,372,cs),
(241,372,o),
(271,352,o),
(271,309,cs),
(271,248,o),
(271,93,o),
(271,64,cs),
(271,19,o),
(293,-12,o),
(323,-12,cs)
);
}
);
};
layerId = m002;
shapes = (
{
closed = 1;
nodes = (
(189,-15,o),
(265,26,o),
(317,85,c),
(312,117,l),
(269,75,o),
(222,51,o),
(193,51,cs),
(156,51,o),
(130,85,o),
(130,134,cs),
(130,147,o),
(144,161,o),
(164,169,c),
(625,299,l),
(634,302,o),
(641,315,o),
(641,331,cs),
(641,397,o),
(592,453,o),
(523,453,cs),
(441,453,o),
(360,395,o),
(326,326,c),
(365,352,l),
(360,408,o),
(307,457,o),
(243,457,cs),
(206,457,o),
(149,431,o),
(106,394,cs),
(72,364,o),
(48,325,o),
(48,300,cs),
(48,281,o),
(65,268,o),
(88,268,cs),
(111,268,o),
(128,281,o),
(128,300,cs),
(128,324,o),
(112,318,o),
(112,337,cs),
(112,365,o),
(167,384,o),
(200,384,cs),
(257,384,o),
(285,360,o),
(285,328,cs),
(285,300,o),
(285,105,o),
(285,85,cs),
(285,85,o),
(294,84,o),
(294,84,c),
(312,27,o),
(379,-13,o),
(457,-13,cs),
(522,-13,o),
(604,30,o),
(654,90,c),
(634,120,l),
(607,88,o),
(552,65,o),
(502,65,cs),
(419,65,o),
(361,131,o),
(361,225,cs),
(361,325,o),
(407,406,o),
(471,406,c),
(509,406,o),
(537,370,o),
(539,333,cs),
(539,321,o),
(529,309,o),
(516,305,c),
(129,193,l),
(82,174,o),
(48,132,o),
(48,91,cs),
(48,29,o),
(83,-15,o),
(143,-15,cs)
);
}
);
width = 684;
}
);
metricLeft = a;
metricRight = e;
unicode = 230;
},
{
color = 4;
glyphname = b;
lastChange = "2024-11-09 08:47:37 +0000";
layers = (
{
background = {
shapes = (
{
closed = 1;
nodes = (
(242,0,l),
(242,26,l),
(229,26,o),
(213,26,o),
(204,26,cs),
(180,26,o),
(163,46,o),
(163,74,cs),
(163,632,l),
(165,700,l),
(160,708,l),
(117,691,o),
(60,673,o),
(20,663,c),
(20,647,l),
(56,647,o),
(82,629,o),
(82,604,cs),
(82,539,o),
(82,127,o),
(82,82,cs),
(82,49,o),
(65,26,o),
(42,26,cs),
(12,26,l),
(12,0,l)
);
}
);
};
layerId = m01;
shapes = (
{
closed = 1;
nodes = (
(400,-12,o),
(511,97,o),
(511,251,cs),
(511,366,o),
(421,448,o),
(293,448,cs),
(237,448,o),
(168,430,o),
(126,404,c),
(134,372,l),
(168,394,o),
(218,410,o),
(253,410,cs),
(345,410,o),
(413,335,o),
(413,227,cs),
(413,110,o),
(356,28,o),
(280,28,cs),
(213,28,o),
(148,70,o),
(124,129,c),
(74,46,l),
(102,12,o),
(172,-12,o),
(242,-12,cs)
);
},
{
closed = 1;
nodes = (
(163,636,l),
(165,700,l),
(160,708,l),
(113,690,o),
(67,675,o),
(20,663,c),
(20,647,l),
(57,647,o),
(82,628,o),
(82,602,c),
(86,451,o),
(82,300,o),
(82,149,c),
(82,100,o),
(79,58,o),
(74,46,c),
(163,26,l)
);
}
);
width = 547;
},
{
background = {
shapes = (
{
closed = 1;
nodes = (
(242,0,l),
(242,26,l),
(229,26,o),
(213,26,o),
(204,26,cs),
(180,26,o),
(163,46,o),
(163,74,cs),
(163,632,l),
(165,700,l),
(160,708,l),
(117,691,o),
(60,673,o),
(20,663,c),
(20,647,l),
(56,647,o),
(82,629,o),
(82,604,cs),
(82,539,o),
(82,127,o),
(82,82,cs),
(82,49,o),
(65,26,o),
(42,26,cs),
(12,26,l),
(12,0,l)
);
}
);
};
layerId = m002;
shapes = (
{
closed = 1;
nodes = (
(403,-12,o),
(514,107,o),
(514,261,cs),
(514,376,o),
(424,458,o),
(296,458,cs),
(240,458,o),
(171,440,o),
(129,414,c),
(137,372,l),
(171,394,o),
(221,410,o),
(256,410,cs),
(348,410,o),
(416,345,o),
(416,237,cs),
(416,120,o),
(359,38,o),
(283,38,cs),
(216,38,o),
(151,80,o),
(127,139,c),
(77,46,l),
(105,12,o),
(175,-12,o),
(245,-12,cs)
);
},
{
closed = 1;
nodes = (
(166,636,l),
(171,700,l),
(163,708,l),
(116,690,o),
(70,675,o),
(23,663,c),
(23,637,l),
(60,637,o),
(85,618,o),
(85,592,c),
(89,451,o),
(85,310,o),
(85,149,c),
(85,100,o),
(82,58,o),
(77,46,c),
(166,26,l)
);
}
);
width = 553;
}
);
metricLeft = h;
metricRight = b;
unicode = 98;
},
{
color = 4;
glyphname = c;
lastChange = "2024-11-09 08:47:37 +0000";
layers = (
{
layerId = m01;
shapes = (
{
closed = 1;
nodes = (
(286,-12,o),
(367,30,o),
(419,90,c),
(399,110,l),
(367,77,o),
(316,54,o),
(275,54,cs),
(181,54,o),
(115,128,o),
(115,233,cs),
(115,333,o),
(165,409,o),
(235,409,cs),
(318,409,o),
(295,340,o),
(340,340,cs),
(371,340,o),
(393,355,o),
(393,376,cs),
(393,418,o),
(348,447,o),
(284,447,cs),
(139,447,o),
(36,338,o),
(36,192,c),
(36,73,o),
(114,-12,o),
(224,-12,c)
);
}
);
width = 428;
},
{
layerId = m002;
shapes = (
{
closed = 1;
nodes = (
(289,-12,o),
(370,30,o),
(422,90,c),
(402,120,l),
(370,87,o),
(319,64,o),
(278,64,cs),
(184,64,o),
(118,128,o),
(118,233,cs),
(118,343,o),
(168,409,o),
(238,409,cs),
(321,409,o),
(298,350,o),
(343,350,cs),
(374,350,o),
(396,365,o),
(396,386,cs),
(396,428,o),
(351,457,o),
(287,457,cs),
(142,457,o),
(39,348,o),
(39,192,c),
(39,73,o),
(117,-12,o),
(227,-12,c)
);
}
);
width = 434;
}
);
metricLeft = o;
metricRight = o;
unicode = 99;
},
{
color = 4;
glyphname = d;
lastChange = "2024-11-09 08:47:37 +0000";
layers = (
{
background = {
shapes = (
{
closed = 1;
nodes = (
(409,-12,o),
(508,87,o),
(508,226,cs),
(508,355,o),
(409,447,o),
(268,447,cs),
(132,447,o),
(36,355,o),
(36,226,cs),
(36,87,o),
(132,-12,o),
(268,-12,cs)
);
},
{
closed = 1;
nodes = (
(196,20,o),
(132,104,o),
(132,222,cs),
(132,335,o),
(182,415,o),
(252,416,cs),
(343,416,o),
(407,331,o),
(407,211,cs),
(407,100,o),
(357,21,o),
(287,20,cs)
);
}
);
};
layerId = m01;
shapes = (
{
closed = 1;
nodes = (
(556,7,l),
(553,36,l),
(531,32,o),
(506,29,o),
(491,29,cs),
(474,29,o),
(462,42,o),
(462,64,c),
(457,255,o),
(457,445,o),
(462,636,c),
(465,700,l),
(458,708,l),
(309,700,l),
(309,673,l),
(311,673,o),
(323,673,o),
(325,673,cs),
(358,673,o),
(381,656,o),
(381,631,cs),
(381,48,l),
(388,0,l),
(390,-12,l)
);
},
{
closed = 1;
nodes = (
(340,-12,o),
(402,33,o),
(423,96,c),
(422,185,l),
(410,94,o),
(353,20,o),
(285,20,cs),
(196,20,o),
(133,105,o),
(133,226,cs),
(133,338,o),
(189,417,o),
(267,417,cs),
(318,417,o),
(374,361,o),
(401,311,c),
(401,407,l),
(371,430,o),
(321,447,o),
(279,447,cs),
(137,447,o),
(36,353,o),
(36,219,cs),
(36,84,o),
(134,-12,o),
(273,-12,cs)
);
}
);
width = 553;
},
{
background = {
shapes = (
{
closed = 1;
nodes = (
(409,-12,o),
(508,87,o),
(508,226,cs),
(508,355,o),
(409,447,o),
(268,447,cs),
(132,447,o),
(36,355,o),
(36,226,cs),
(36,87,o),
(132,-12,o),
(268,-12,cs)
);
},
{
closed = 1;
nodes = (
(196,20,o),
(132,104,o),
(132,222,cs),
(132,335,o),
(182,415,o),
(252,416,cs),
(343,416,o),
(407,331,o),
(407,211,cs),
(407,100,o),
(357,21,o),
(287,20,cs)
);
}
);
};
layerId = m002;
shapes = (
{
closed = 1;
nodes = (
(559,7,l),
(556,46,l),
(534,42,o),
(509,39,o),
(494,39,cs),
(477,39,o),
(465,52,o),
(465,74,c),
(460,275,o),
(460,455,o),
(465,636,c),
(468,700,l),
(461,708,l),
(312,700,l),
(312,663,l),
(314,663,o),
(326,663,o),
(328,663,cs),
(361,663,o),
(381,646,o),
(381,621,cs),
(381,48,l),
(391,0,l),
(393,-12,l)
);
},
{
closed = 1;
nodes = (
(343,-12,o),
(405,33,o),
(426,96,c),
(425,195,l),
(413,104,o),
(356,30,o),
(288,30,cs),
(199,30,o),
(136,115,o),
(136,236,cs),
(136,348,o),
(192,417,o),
(270,417,cs),
(321,417,o),
(377,361,o),
(404,311,c),
(404,417,l),
(374,440,o),
(324,457,o),
(282,457,cs),
(140,457,o),
(39,363,o),
(39,219,cs),
(39,84,o),
(137,-12,o),
(276,-12,cs)
);
}
);
width = 557;
}
);
metricLeft = o;
metricRight = n;
unicode = 100;
},
{
color = 4;
glyphname = e;
lastChange = "2024-11-09 08:47:37 +0000";
layers = (
{
background = {
shapes = (
{
closed = 1;
nodes = (
(399,110,l),
(367,77,o),
(316,54,o),
(275,54,cs),
(181,54,o),
(115,128,o),
(115,233,cs),
(115,333,o),
(165,409,o),
(235,409,cs),
(318,409,o),
(295,340,o),
(340,340,cs),
(371,340,o),
(393,355,o),
(393,376,cs),
(393,418,o),
(348,447,o),
(284,447,cs),
(139,447,o),
(36,338,o),
(36,192,c),
(36,73,o),
(114,-12,o),
(224,-12,c),
(286,-12,o),
(367,30,o),
(419,90,c)
);
}
);
};
layerId = m01;
shapes = (
{
closed = 1;
nodes = (
(285,-13,o),
(367,30,o),
(419,90,c),
(399,110,l),
(368,78,o),
(319,55,o),
(281,55,cs),
(183,55,o),
(114,130,o),
(114,237,cs),
(114,342,o),
(170,417,o),
(250,417,cs),
(293,417,o),
(324,381,o),
(324,331,cs),
(324,323,o),
(321,311,o),
(317,303,c),
(85,303,l),
(85,273,l),
(187,273,o),
(364,273,o),
(406,273,cs),
(417,273,o),
(425,282,o),
(425,295,cs),
(425,384,o),
(351,447,o),
(247,447,cs),
(123,447,o),
(36,351,o),
(36,216,cs),
(36,82,o),
(113,-13,o),
(221,-13,cs)
);
}
);
width = 452;
},
{
background = {
shapes = (
{
closed = 1;
nodes = (
(399,110,l),
(367,77,o),
(316,54,o),
(275,54,cs),
(181,54,o),
(115,128,o),
(115,233,cs),
(115,333,o),
(165,409,o),
(235,409,cs),
(318,409,o),
(295,340,o),
(340,340,cs),
(371,340,o),
(393,355,o),
(393,376,cs),
(393,418,o),
(348,447,o),
(284,447,cs),
(139,447,o),
(36,338,o),
(36,192,c),
(36,73,o),
(114,-12,o),
(224,-12,c),
(286,-12,o),
(367,30,o),
(419,90,c)
);
}
);
};
layerId = m002;
shapes = (
{
closed = 1;
nodes = (
(288,-13,o),
(370,30,o),
(422,90,c),
(402,120,l),
(371,88,o),
(322,65,o),
(284,65,cs),
(186,65,o),
(117,130,o),
(117,237,cs),
(117,342,o),
(173,417,o),
(253,417,cs),
(296,417,o),
(327,381,o),
(327,331,cs),
(327,323,o),
(324,311,o),
(320,303,c),
(88,303,l),
(88,263,l),
(190,263,o),
(367,263,o),
(409,263,cs),
(420,263,o),
(428,282,o),
(428,295,cs),
(428,384,o),
(354,457,o),
(250,457,cs),
(126,457,o),
(39,351,o),
(39,216,cs),
(39,82,o),
(116,-13,o),
(224,-13,cs)
);
}
);
width = 458;
}
);
metricLeft = o;
metricRight = o;
unicode = 101;
},
{
color = 4;
glyphname = f;
lastChange = "2024-11-09 08:47:37 +0000";
layers = (
{
layerId = m01;
shapes = (
{
closed = 1;
nodes = (
(266,0,l),
(266,28,l),
(257,28,o),
(256,28,o),
(219,28,cs),
(197,28,o),
(181,41,o),
(181,59,cs),
(181,90,o),
(181,497,o),
(181,531,cs),
(181,604,o),
(201,672,o),
(229,696,cs),
(243,708,o),
(268,716,o),
(290,716,cs),
(342,716,o),
(321,650,o),
(369,650,cs),
(394,650,o),
(445,676,o),
(445,713,cs),
(445,752,o),
(409,779,o),
(357,779,cs),
(316,779,o),
(248,746,o),
(193,699,cs),
(140,655,o),
(103,582,o),
(103,512,cs),
(103,449,o),
(72,404,o),
(27,404,cs),
(15,404,l),
(15,376,l),
(100,376,l),
(105,276,o),
(105,177,o),
(100,77,c),
(100,48,o),
(81,28,o),
(55,28,cs),
(10,28,l),
(10,0,l)
);
},
{
closed = 1;
nodes = (
(303,376,l),
(303,435,l),
(170,435,l),
(170,376,l)
);
}
);
width = 312;
},
{
layerId = m002;
shapes = (
{
closed = 1;
nodes = (
(266,0,l),
(266,38,l),
(257,38,o),
(256,38,o),
(219,38,cs),
(197,38,o),
(184,51,o),
(184,69,cs),
(184,100,o),
(184,507,o),
(184,541,cs),
(184,614,o),
(201,662,o),
(229,686,cs),
(243,698,o),
(268,706,o),
(290,706,cs),
(342,706,o),
(321,650,o),
(369,650,cs),
(394,650,o),
(445,676,o),
(445,713,cs),
(445,752,o),
(409,779,o),
(357,779,cs),
(316,779,o),
(248,746,o),
(193,699,cs),
(140,655,o),
(103,592,o),
(103,522,cs),
(103,459,o),
(72,414,o),
(27,414,cs),
(15,414,l),
(15,376,l),
(100,376,l),
(105,276,o),
(105,187,o),
(100,87,c),
(100,58,o),
(81,38,o),
(55,38,cs),
(10,38,l),
(10,0,l)
);
},
{
closed = 1;
nodes = (
(303,376,l),
(303,445,l),
(170,445,l),
(170,376,l)
);
}
);
width = 315;
}
);
unicode = 102;
},
{
color = 4;
glyphname = g;
lastChange = "2024-11-09 08:47:37 +0000";
layers = (
{
layerId = m01;
shapes = (
{
closed = 1;
nodes = (
(387,-316,o),
(494,-220,o),
(494,-84,cs),
(494,-2,o),
(421,56,o),
(317,56,cs),
(252,56,o),
(195,56,o),
(175,56,cs),
(141,56,o),
(117,70,o),
(117,90,cs),
(117,104,o),
(143,126,o),
(179,142,c),
(154,154,l),
(90,124,o),
(45,83,o),
(45,56,cs),
(45,12,o),
(79,-19,o),
(126,-19,cs),
(185,-19,o),
(307,-19,o),
(334,-19,cs),
(387,-19,o),
(420,-54,o),
(420,-104,cs),
(420,-207,o),
(354,-280,o),
(254,-280,cs),
(157,-280,o),
(93,-225,o),
(93,-147,cs),
(93,-98,o),
(139,-38,o),
(212,-1,c),
(170,-1,l),
(170,7,l),
(80,-32,o),
(16,-107,o),
(16,-174,cs),
(16,-257,o),
(107,-316,o),
(236,-316,cs)
);
},
{
closed = 1;
nodes = (
(352,122,o),
(421,190,o),
(421,285,cs),
(421,379,o),
(348,446,o),
(244,446,cs),
(143,446,o),
(71,374,o),
(71,272,cs),
(71,184,o),
(146,122,o),
(253,122,cs)
);
},
{
closed = 1;
nodes = (
(198,149,o),
(157,216,o),
(157,310,cs),
(157,374,o),
(190,418,o),
(237,418,cs),
(292,418,o),
(331,355,o),
(331,265,cs),
(331,197,o),
(299,149,o),
(255,149,cs)
);
},
{
closed = 1;
nodes = (
(498,404,l),
(477,404,o),
(382,375,o),
(358,375,c),
(366,355,l),
(491,334,l)
);
}
);
width = 510;
},
{
layerId = m002;
shapes = (
{
closed = 1;
nodes = (
(390,-316,o),
(497,-220,o),
(497,-84,cs),
(497,-2,o),
(424,56,o),
(320,56,cs),
(255,56,o),
(198,56,o),
(178,56,cs),
(144,56,o),
(120,80,o),
(120,100,cs),
(120,114,o),
(146,136,o),
(182,152,c),
(157,174,l),
(93,144,o),
(48,99,o),
(48,66,cs),
(48,22,o),
(82,-19,o),
(129,-19,cs),
(188,-19,o),
(310,-19,o),
(337,-19,cs),
(390,-19,o),
(423,-50,o),
(423,-94,cs),
(423,-200,o),
(357,-275,o),
(257,-275,cs),
(166,-275,o),
(106,-222,o),
(106,-147,cs),
(106,-98,o),
(152,-38,o),
(225,-1,c),
(173,-1,l),
(173,7,l),
(83,-32,o),
(19,-107,o),
(19,-174,cs),
(19,-257,o),
(110,-316,o),
(239,-316,cs)
);
},
{
closed = 1;
nodes = (
(355,132,o),
(424,200,o),
(424,295,cs),
(424,389,o),
(351,456,o),
(247,456,cs),
(146,456,o),
(74,384,o),
(74,282,cs),
(74,194,o),
(149,132,o),
(256,132,cs)
);
},
{
closed = 1;
nodes = (
(201,169,o),
(160,226,o),
(160,320,cs),
(160,384,o),
(193,418,o),
(240,418,cs),
(295,418,o),
(334,365,o),
(334,275,cs),
(334,207,o),
(302,169,o),
(258,169,cs)
);
},
{
closed = 1;
nodes = (
(501,414,l),
(480,414,o),
(385,385,o),
(361,385,c),
(369,345,l),
(494,344,l)
);
}
);
width = 513;
}
);
unicode = 103;
},
{
color = 4;
glyphname = h;
lastChange = "2024-11-09 08:47:37 +0000";
layers = (
{
background = {
shapes = (
{
closed = 1;
nodes = (
(13,-1,l),
(267,-1,l),
(267,27,l),
(260,27,o),
(259,27,o),
(246,27,cs),
(203,27,o),
(173,51,o),
(173,86,cs),
(173,647,l),
(176,700,l),
(171,708,l),
(29,663,l),
(29,647,l),
(66,647,o),
(92,628,o),
(92,601,cs),
(92,570,o),
(92,76,o),
(92,60,cs),
(92,41,o),
(71,27,o),
(41,27,cs),
(12,27,l),
(12,-1,l)
);
}
);
};
layerId = m01;
shapes = (
{
closed = 1;
nodes = (
(552,1,l),
(552,31,l),
(542,31,o),
(497,31,o),
(491,31,cs),
(477,31,o),
(467,48,o),
(467,63,cs),
(467,107,o),
(464,297,o),
(464,342,cs),
(464,403,o),
(413,446,o),
(340,446,cs),
(276,446,o),
(190,407,o),
(132,352,c),
(143,327,l),
(177,360,o),
(237,383,o),
(289,383,cs),
(343,383,o),
(382,352,o),
(382,309,c),
(387,234,o),
(387,169,o),
(382,94,c),
(382,56,o),
(367,26,o),
(347,26,cs),
(310,26,l),
(310,1,l)
);
},
{
closed = 1;
nodes = (
(251,0,l),
(251,26,l),
(238,26,o),
(222,26,o),
(213,26,cs),
(189,26,o),
(172,46,o),
(172,74,cs),
(172,632,l),
(174,700,l),
(169,708,l),
(126,691,o),
(69,673,o),
(29,663,c),
(29,647,l),
(65,647,o),
(89,629,o),
(89,604,c),
(94,420,o),
(94,256,o),
(89,82,c),
(89,49,o),
(74,26,o),
(51,26,cs),
(21,26,l),
(21,0,l)
);
}
);
width = 557;
},
{
background = {
shapes = (
{
closed = 1;
nodes = (
(13,-1,l),
(267,-1,l),
(267,27,l),
(260,27,o),
(259,27,o),
(246,27,cs),
(203,27,o),
(173,51,o),
(173,86,cs),
(173,647,l),
(176,700,l),
(171,708,l),
(29,663,l),
(29,647,l),
(66,647,o),
(92,628,o),
(92,601,cs),
(92,570,o),
(92,76,o),
(92,60,cs),
(92,41,o),
(71,27,o),
(41,27,cs),
(12,27,l),
(12,-1,l)
);
}
);
};
layerId = m002;
shapes = (
{
closed = 1;
nodes = (
(555,1,l),
(555,41,l),
(545,41,o),
(500,41,o),
(494,41,cs),
(480,41,o),
(470,58,o),
(470,73,cs),
(470,117,o),
(467,307,o),
(467,352,cs),
(467,413,o),
(416,456,o),
(343,456,cs),
(279,456,o),
(193,417,o),
(135,362,c),
(146,327,l),
(180,360,o),
(240,383,o),
(292,383,cs),
(346,383,o),
(385,362,o),
(385,319,c),
(390,244,o),
(390,179,o),
(385,104,c),
(385,66,o),
(370,36,o),
(350,36,cs),
(313,36,l),
(313,1,l)
);
},
{
closed = 1;
nodes = (
(254,0,l),
(254,36,l),
(241,36,o),
(225,36,o),
(216,36,cs),
(192,36,o),
(174,56,o),
(174,84,cs),
(177,632,l),
(180,700,l),
(175,708,l),
(132,691,o),
(72,673,o),
(32,663,c),
(32,637,l),
(68,637,o),
(92,619,o),
(92,594,c),
(97,420,o),
(97,266,o),
(92,92,c),
(92,59,o),
(77,36,o),
(54,36,cs),
(24,36,l),
(24,0,l)
);
}
);
width = 563;
}
);
unicode = 104;
},
{
color = 4;
glyphname = i;
lastChange = "2024-11-09 08:47:37 +0000";
layers = (
{
layerId = m01;
shapes = (
{
closed = 1;
nodes = (
(253,0,l),
(253,28,l),
(245,28,o),
(215,28,o),
(208,28,cs),
(192,28,o),
(181,40,o),
(181,57,c),
(181,352,l),
(184,435,l),
(175,451,l),
(138,428,o),
(84,405,o),
(43,396,c),
(43,378,l),
(76,378,o),
(100,356,o),
(100,324,c),
(105,234,o),
(105,143,o),
(100,53,c),
(100,38,o),
(85,28,o),
(64,28,cs),
(45,28,l),
(45,0,l)
);
},
{
closed = 1;
nodes = (
(168,596,o),
(188,615,o),
(188,641,cs),
(188,667,o),
(168,686,o),
(140,686,cs),
(112,686,o),
(92,667,o),
(92,641,cs),
(92,615,o),
(112,596,o),
(140,596,cs)
);
}
);
width = 272;
},
{
layerId = m002;
shapes = (
{
closed = 1;
nodes = (
(252,0,l),
(252,38,l),
(244,38,o),
(214,38,o),
(207,38,cs),
(191,38,o),
(182,50,o),
(182,67,c),
(182,362,l),
(183,445,l),
(174,461,l),
(137,438,o),
(83,415,o),
(42,406,c),
(42,378,l),
(75,378,o),
(99,356,o),
(99,324,c),
(104,234,o),
(104,153,o),
(99,63,c),
(99,48,o),
(84,38,o),
(63,38,cs),
(44,38,l),
(44,0,l)
);
},
{
closed = 1;
nodes = (
(171,589,o),
(195,611,o),
(195,641,cs),
(195,671,o),
(171,693,o),
(139,693,cs),
(107,693,o),
(83,671,o),
(83,641,cs),
(83,611,o),
(107,589,o),
(139,589,cs)
);
}
);
width = 276;
}
);
metricLeft = n;
metricRight = n;
unicode = 105;
},
{
color = 4;
glyphname = j;
lastChange = "2024-11-09 08:47:37 +0000";
layers = (
{
layerId = m01;
shapes = (
{
closed = 1;
nodes = (
(106,-180,o),
(181,-76,o),
(181,-11,cs),
(181,36,o),
(181,372,o),
(181,390,c),
(183,435,l),
(180,443,l),
(42,405,l),
(45,392,l),
(77,392,o),
(100,375,o),
(100,351,c),
(105,224,o),
(105,98,o),
(100,-29,c),
(100,-87,o),
(49,-172,o),
(-24,-233,c),
(1,-262,l)
);
},
{
closed = 1;
nodes = (
(163,617,o),
(187,640,o),
(187,668,cs),
(187,695,o),
(163,718,o),
(134,718,cs),
(104,718,o),
(80,695,o),
(80,668,cs),
(80,640,o),
(104,617,o),
(134,617,cs)
);
}
);
width = 263;
},
{
layerId = m002;
shapes = (
{
closed = 1;
nodes = (
(105,-180,o),
(182,-76,o),
(182,-11,cs),
(182,36,o),
(182,382,o),
(182,400,c),
(182,445,l),
(179,453,l),
(41,415,l),
(44,392,l),
(76,392,o),
(99,375,o),
(99,351,c),
(104,224,o),
(104,108,o),
(99,-19,c),
(99,-77,o),
(48,-162,o),
(-25,-223,c),
(0,-262,l)
);
},
{
closed = 1;
nodes = (
(163,585,o),
(188,609,o),
(188,638,cs),
(188,666,o),
(163,690,o),
(133,690,cs),
(102,690,o),
(77,666,o),
(77,638,cs),
(77,609,o),
(102,585,o),
(133,585,cs)
);
}
);
width = 267;
}
);
metricLeft = i;
metricRight = o;
unicode = 106;
},
{
color = 4;
glyphname = k;
lastChange = "2024-11-09 08:47:37 +0000";
layers = (
{
layerId = m01;
shapes = (
{
closed = 1;
nodes = (
(260,0,l),
(260,26,l),
(247,26,o),
(231,26,o),
(222,26,cs),
(198,26,o),
(181,46,o),
(181,74,cs),
(181,632,l),
(183,700,l),
(178,708,l),
(135,691,o),
(78,673,o),
(38,663,c),
(38,647,l),
(74,647,o),
(100,629,o),
(100,604,c),
(105,430,o),
(105,256,o),
(100,82,c),
(100,49,o),
(83,26,o),
(60,26,cs),
(30,26,l),
(30,0,l)
);
},
{
closed = 1;
nodes = (
(523,0,l),
(523,28,l),
(518,28,o),
(503,28,o),
(498,28,cs),
(493,28,o),
(451,35,o),
(422,71,cs),
(257,280,l),
(203,239,l),
(251,182,o),
(294,121,o),
(334,56,cs),
(354,24,o),
(339,28,o),
(325,28,cs),
(290,28,l),
(290,0,l)
);
},
{
closed = 1;
nodes = (
(394,365,ls),
(427,391,o),
(510,407,o),
(523,407,c),
(523,435,l),
(324,435,l),
(324,407,l),
(330,407,l),
(349,407,o),
(389,399,o),
(341,362,cs),
(144,211,l),
(144,171,l)
);
}
);
width = 523;
},
{
layerId = m002;
shapes = (
{
closed = 1;
nodes = (
(261,0,l),
(261,36,l),
(248,36,o),
(232,36,o),
(223,36,cs),
(199,36,o),
(182,56,o),
(182,84,cs),
(182,632,l),
(184,700,l),
(179,708,l),
(136,691,o),
(79,673,o),
(39,663,c),
(39,637,l),
(75,637,o),
(101,619,o),
(101,594,c),
(106,420,o),
(106,266,o),
(101,92,c),
(101,59,o),
(84,36,o),
(61,36,cs),
(31,36,l),
(31,0,l)
);
},
{
closed = 1;
nodes = (
(524,0,l),
(524,38,l),
(519,38,o),
(504,38,o),
(499,38,cs),
(494,38,o),
(453,45,o),
(423,81,cs),
(258,280,l),
(204,239,l),
(252,182,o),
(295,131,o),
(335,66,cs),
(355,34,o),
(340,38,o),
(326,38,cs),
(291,38,l),
(291,0,l)
);
},
{
closed = 1;
nodes = (
(395,353,ls),
(428,379,o),
(511,407,o),
(524,407,c),
(524,445,l),
(325,445,l),
(325,407,l),
(331,407,l),
(350,407,o),
(390,399,o),
(342,362,cs),
(145,211,l),
(145,159,l)
);
}
);
width = 527;
}
);
unicode = 107;
},
{
color = 4;
glyphname = l;
lastChange = "2024-11-09 08:47:37 +0000";
layers = (
{
layerId = m01;
shapes = (
{
closed = 1;
nodes = (
(12,-1,l),
(270,-1,l),
(270,27,l),
(263,27,o),
(262,27,o),
(249,27,cs),
(206,27,o),
(176,51,o),
(176,86,cs),
(176,647,l),
(179,700,l),
(174,708,l),
(28,663,l),
(28,647,l),
(65,647,o),
(91,628,o),
(91,601,c),
(96,421,o),
(96,240,o),
(91,60,c),
(91,41,o),
(70,27,o),
(40,27,cs),
(11,27,l),
(11,-1,l)
);
}
);
width = 267;
},
{
layerId = m002;
shapes = (
{
closed = 1;
nodes = (
(13,-1,l),
(271,-1,l),
(271,37,l),
(264,37,o),
(263,37,o),
(250,37,cs),
(207,37,o),
(177,61,o),
(177,96,cs),
(180,647,l),
(183,700,l),
(178,708,l),
(29,663,l),
(29,637,l),
(66,637,o),
(92,618,o),
(92,591,c),
(97,411,o),
(97,250,o),
(92,70,c),
(92,51,o),
(71,37,o),
(41,37,cs),
(12,37,l),
(12,-1,l)
);
}
);
width = 271;
}
);
metricLeft = n;
metricRight = n;
unicode = 108;
},
{
color = 4;
glyphname = m;
lastChange = "2024-11-09 08:47:37 +0000";
layers = (
{
background = {
shapes = (
{
closed = 1;
nodes = (
(260,0,l),
(260,28,l),
(247,28,o),
(231,28,o),
(222,28,cs),
(198,28,o),
(181,46,o),
(181,74,cs),
(181,382,l),
(183,435,l),
(168,448,l),
(143,434,o),
(100,414,o),
(59,402,c),
(59,388,l),
(83,378,o),
(99,360,o),
(100,344,cs),
(105,279,o),
(105,127,o),
(100,82,cs),
(96,49,o),
(83,28,o),
(60,28,cs),
(30,28,l),
(30,0,l)
);
}
);
};
layerId = m01;
shapes = (
{
closed = 1;
nodes = (
(855,1,l),
(855,32,l),
(794,32,ls),
(780,32,o),
(770,48,o),
(770,63,cs),
(770,107,o),
(767,298,o),
(767,343,cs),
(767,404,o),
(716,447,o),
(643,447,cs),
(579,447,o),
(493,408,o),
(435,353,c),
(446,328,l),
(480,361,o),
(540,384,o),
(592,384,cs),
(646,384,o),
(678,353,o),
(685,310,cs),
(690,280,o),
(690,133,o),
(685,94,cs),
(680,56,o),
(670,28,o),
(650,28,cs),
(613,28,l),
(613,1,l)
);
},
{
closed = 1;
nodes = (
(260,0,l),
(260,28,l),
(222,28,ls),
(198,28,o),
(184,46,o),
(184,74,cs),
(184,382,l),
(183,435,l),
(168,448,l),
(137,431,o),
(92,412,o),
(59,402,c),
(59,388,l),
(83,378,o),
(99,360,o),
(100,344,cs),
(105,279,o),
(105,127,o),
(100,82,cs),
(96,49,o),
(83,28,o),
(60,28,cs),
(30,28,l),
(30,0,l)
);
},
{
closed = 1;
nodes = (
(554,1,l),
(554,28,l),
(500,28,ls),
(486,28,o),
(476,48,o),
(476,63,cs),
(476,107,o),
(473,298,o),
(473,343,cs),
(473,404,o),
(422,447,o),
(349,447,cs),
(285,447,o),
(199,408,o),
(141,353,c),
(152,328,l),
(186,361,o),
(246,384,o),
(298,384,cs),
(352,384,o),
(384,353,o),
(391,310,cs),
(396,280,o),
(396,133,o),
(391,94,cs),
(386,56,o),
(376,28,o),
(356,28,cs),
(319,28,l),
(319,1,l)
);
}
);
width = 860;
},
{
background = {
shapes = (
{
closed = 1;
nodes = (
(257,0,l),
(257,38,l),
(244,38,o),
(228,38,o),
(219,38,cs),
(195,38,o),
(178,53,o),
(178,81,cs),
(178,382,l),
(180,435,l),
(165,448,l),
(140,434,o),
(97,414,o),
(56,402,c),
(56,378,l),
(80,368,o),
(96,350,o),
(97,334,cs),
(102,269,o),
(102,134,o),
(97,89,cs),
(93,56,o),
(80,38,o),
(57,38,cs),
(27,38,l),
(27,0,l)
);
}
);
};
layerId = m002;
shapes = (
{
closed = 1;
nodes = (
(855,1,l),
(855,43,l),
(794,43,ls),
(780,43,o),
(770,58,o),
(770,73,cs),
(770,117,o),
(767,308,o),
(767,353,cs),
(767,414,o),
(716,457,o),
(643,457,cs),
(579,457,o),
(493,418,o),
(435,363,c),
(446,328,l),
(480,361,o),
(540,384,o),
(592,384,cs),
(646,384,o),
(678,363,o),
(685,320,cs),
(690,290,o),
(690,143,o),
(685,104,cs),
(680,66,o),
(670,38,o),
(650,38,cs),
(613,38,l),
(613,1,l)
);
},
{
closed = 1;
nodes = (
(260,0,l),
(260,38,l),
(222,38,ls),
(198,38,o),
(181,56,o),
(181,84,cs),
(181,392,l),
(183,445,l),
(168,460,l),
(145,444,o),
(100,424,o),
(59,412,c),
(59,388,l),
(83,378,o),
(99,360,o),
(100,344,cs),
(105,279,o),
(105,137,o),
(100,92,cs),
(96,59,o),
(83,38,o),
(60,38,cs),
(30,38,l),
(30,0,l)
);
},
{
closed = 1;
nodes = (
(554,1,l),
(554,38,l),
(500,38,ls),
(486,38,o),
(476,58,o),
(476,73,cs),
(476,117,o),
(473,308,o),
(473,353,cs),
(473,414,o),
(422,457,o),
(349,457,cs),
(285,457,o),
(199,418,o),
(141,363,c),
(152,328,l),
(186,361,o),
(246,384,o),
(298,384,cs),
(352,384,o),
(384,363,o),
(391,320,cs),
(396,290,o),
(396,143,o),
(391,104,cs),
(386,66,o),
(376,38,o),
(356,38,cs),
(319,38,l),
(319,1,l)
);
}
);
width = 863;
}
);
metricLeft = n;
metricRight = n;
unicode = 109;
},
{
color = 4;
glyphname = n;
lastChange = "2024-11-09 08:47:37 +0000";
layers = (
{
layerId = m01;
shapes = (
{
closed = 1;
nodes = (
(561,1,l),
(561,32,l),
(551,32,o),
(506,32,o),
(500,32,cs),
(486,32,o),
(476,44,o),
(476,63,cs),
(476,107,o),
(473,298,o),
(473,343,cs),
(473,404,o),
(424,447,o),
(354,447,cs),
(287,447,o),
(199,408,o),
(141,353,c),
(152,328,l),
(186,361,o),
(246,384,o),
(298,384,cs),
(352,384,o),
(384,353,o),
(391,310,cs),
(396,280,o),
(396,133,o),
(391,94,cs),
(386,54,o),
(376,28,o),
(356,28,cs),
(319,28,l),
(319,1,l)
);
},
{
closed = 1;
nodes = (
(260,0,l),
(260,28,l),
(247,28,o),
(231,28,o),
(222,28,cs),
(198,28,o),
(184,46,o),
(184,74,cs),
(184,382,l),
(183,435,l),
(168,448,l),
(143,434,o),
(100,414,o),
(59,402,c),
(59,388,l),
(83,378,o),
(99,360,o),
(100,344,cs),
(105,279,o),
(105,127,o),
(100,82,cs),
(96,49,o),
(83,28,o),
(60,28,cs),
(30,28,l),
(30,0,l)
);
}
);
width = 566;
},
{
layerId = m002;
shapes = (
{
closed = 1;
nodes = (
(561,1,l),
(561,43,l),
(551,43,o),
(506,43,o),
(500,43,cs),
(486,43,o),
(476,51,o),
(476,70,cs),
(476,114,o),
(473,308,o),
(473,353,cs),
(473,414,o),
(424,457,o),
(354,457,cs),
(287,457,o),
(199,418,o),
(141,363,c),
(152,328,l),
(186,361,o),
(246,384,o),
(298,384,cs),
(352,384,o),
(384,363,o),
(391,320,cs),
(396,290,o),
(396,140,o),
(391,101,cs),
(386,61,o),
(376,38,o),
(356,38,cs),
(319,38,l),
(319,1,l)
);
},
{
closed = 1;
nodes = (
(260,0,l),
(260,38,l),
(247,38,o),
(231,38,o),
(222,38,cs),
(198,38,o),
(181,53,o),
(181,81,cs),
(181,392,l),
(183,445,l),
(168,458,l),
(143,444,o),
(100,424,o),
(59,412,c),
(59,388,l),
(83,378,o),
(99,360,o),
(100,344,cs),
(105,279,o),
(105,134,o),
(100,89,cs),
(96,56,o),
(83,38,o),
(60,38,cs),
(30,38,l),
(30,0,l)
);
}
);
width = 569;
}
);
unicode = 110;
},
{
color = 4;
glyphname = o;
lastChange = "2024-11-10 11:52:58 +0000";
layers = (
{
anchors = (
{
name = bottom;
pos = (272,0);
},
{
name = center;
pos = (272,218);
},
{
name = ogonek;
pos = (490,10);
},
{
name = top;
pos = (272,435);
},
{
name = topright;
pos = (524,435);
}
);
layerId = m01;
shapes = (
{
closed = 1;
nodes = (
(409,-12,o),
(508,87,o),
(508,226,cs),
(508,355,o),
(409,447,o),
(268,447,cs),
(132,447,o),
(36,355,o),
(36,226,cs),
(36,87,o),
(132,-12,o),
(268,-12,cs)
);
},
{
closed = 1;
nodes = (
(197,19,o),
(136,103,o),
(136,222,cs),
(136,335,o),
(186,415,o),
(254,416,cs),
(346,416,o),
(409,331,o),
(409,211,cs),
(409,100,o),
(356,20,o),
(285,19,cs)
);
}
);
width = 544;
},
{
anchors = (
{
name = bottom;
pos = (275,0);
},
{
name = center;
pos = (275,223);
},
{
name = ogonek;
pos = (495,10);
},
{
name = top;
pos = (275,445);
},
{
name = topright;
pos = (530,445);
}
);
layerId = m002;
shapes = (
{
closed = 1;
nodes = (
(412,-12,o),
(511,97,o),
(511,236,cs),
(511,365,o),
(412,457,o),
(271,457,cs),
(135,457,o),
(39,365,o),
(39,236,cs),
(39,97,o),
(135,-12,o),
(271,-12,cs)
);
},
{
closed = 1;
nodes = (
(200,29,o),
(139,119,o),
(139,232,cs),
(139,339,o),
(189,415,o),
(257,416,cs),
(349,416,o),
(412,335,o),
(412,221,cs),
(412,115,o),
(359,30,o),
(288,29,cs)
);
}
);
width = 550;
}
);
unicode = 111;
},
{
color = 4;
glyphname = p;
lastChange = "2024-11-09 08:47:37 +0000";
layers = (
{
layerId = m01;
shapes = (
{
closed = 1;
nodes = (
(300,-290,l),
(300,-262,l),
(216,-262,l),
(190,-262,o),
(172,-245,o),
(172,-221,cs),
(172,386,l),
(173,435,l),
(168,447,l),
(126,425,o),
(72,406,o),
(31,400,c),
(31,381,l),
(66,381,o),
(91,352,o),
(91,310,c),
(96,140,o),
(96,-29,o),
(91,-199,c),
(91,-236,o),
(68,-262,o),
(35,-262,cs),
(16,-262,l),
(16,-290,l)
);
},
{
closed = 1;
nodes = (
(403,-12,o),
(502,97,o),
(502,251,cs),
(502,363,o),
(422,447,o),
(310,447,cs),
(252,447,o),
(175,415,o),
(124,370,c),
(142,349,l),
(172,377,o),
(219,397,o),
(254,397,cs),
(337,397,o),
(406,324,o),
(406,227,cs),
(406,105,o),
(336,28,o),
(253,28,cs),
(212,28,o),
(170,49,o),
(151,79,c),
(151,34,l),
(181,7,o),
(227,-12,o),
(262,-12,cs)
);
}
);
width = 538;
},
{
layerId = m002;
shapes = (
{
closed = 1;
nodes = (
(300,-290,l),
(300,-252,l),
(216,-252,l),
(190,-252,o),
(174,-235,o),
(174,-211,cs),
(174,396,l),
(173,445,l),
(168,457,l),
(126,435,o),
(72,416,o),
(31,410,c),
(31,381,l),
(66,381,o),
(91,352,o),
(91,310,c),
(96,140,o),
(96,-19,o),
(91,-189,c),
(91,-226,o),
(68,-252,o),
(35,-252,cs),
(16,-252,l),
(16,-290,l)
);
},
{
closed = 1;
nodes = (
(403,-12,o),
(502,107,o),
(502,261,cs),
(502,373,o),
(422,457,o),
(310,457,cs),
(252,457,o),
(175,425,o),
(124,380,c),
(142,349,l),
(172,377,o),
(219,397,o),
(254,397,cs),
(337,397,o),
(406,334,o),
(406,237,cs),
(406,115,o),
(336,40,o),
(253,40,cs),
(212,40,o),
(170,61,o),
(151,91,c),
(151,34,l),
(181,7,o),
(227,-12,o),
(262,-12,cs)
);
}
);
width = 541;
}
);
metricLeft = n;
metricRight = o;
unicode = 112;
},
{
color = 4;
glyphname = q;
lastChange = "2024-11-09 08:47:37 +0000";
layers = (
{
layerId = m01;
shapes = (
{
closed = 1;
nodes = (
(310,-12,o),
(379,6,o),
(421,32,c),
(413,64,l),
(379,42,o),
(329,26,o),
(294,26,cs),
(202,26,o),
(134,117,o),
(134,249,cs),
(134,342,o),
(187,409,o),
(257,409,cs),
(331,409,o),
(400,364,o),
(423,327,c),
(423,417,l),
(395,435,o),
(345,448,o),
(304,448,cs),
(147,448,o),
(36,356,o),
(36,225,cs),
(36,86,o),
(126,-12,o),
(254,-12,cs)
);
},
{
closed = 1;
nodes = (
(542,-282,l),
(542,-255,l),
(537,-255,o),
(534,-255,o),
(527,-255,cs),
(490,-255,o),
(464,-236,o),
(464,-210,c),
(459,-30,o),
(459,150,o),
(464,330,c),
(464,379,o),
(468,421,o),
(473,433,c),
(466,444,l),
(423,426,o),
(389,411,o),
(385,410,c),
(385,-210,l),
(385,-236,o),
(364,-254,o),
(335,-254,cs),
(297,-254,l),
(297,-282,l)
);
}
);
width = 546;
},
{
layerId = m002;
shapes = (
{
closed = 1;
nodes = (
(313,-12,o),
(382,6,o),
(424,32,c),
(416,77,l),
(382,55,o),
(332,34,o),
(297,34,cs),
(205,34,o),
(137,127,o),
(137,259,cs),
(137,352,o),
(190,411,o),
(260,411,cs),
(334,411,o),
(403,364,o),
(426,327,c),
(426,427,l),
(398,445,o),
(348,458,o),
(307,458,cs),
(150,458,o),
(39,366,o),
(39,235,cs),
(39,96,o),
(129,-12,o),
(257,-12,cs)
);
},
{
closed = 1;
nodes = (
(545,-282,l),
(545,-245,l),
(540,-245,o),
(537,-245,o),
(530,-245,cs),
(493,-245,o),
(467,-226,o),
(467,-200,c),
(462,-20,o),
(462,160,o),
(467,340,c),
(467,389,o),
(471,431,o),
(476,443,c),
(469,454,l),
(426,436,o),
(388,421,o),
(384,420,c),
(384,-200,l),
(384,-226,o),
(367,-244,o),
(338,-244,cs),
(300,-244,l),
(300,-282,l)
);
}
);
width = 549;
}
);
metricLeft = o;
metricRight = n;
unicode = 113;
},
{
color = 4;
glyphname = r;
lastChange = "2024-11-09 08:47:37 +0000";
layers = (
{
layerId = m01;
shapes = (
{
closed = 1;
nodes = (
(263,0,l),
(263,28,l),
(253,28,o),
(243,28,o),
(222,28,cs),
(199,28,o),
(181,36,o),
(181,47,cs),
(181,57,o),
(181,275,o),
(181,307,cs),
(181,346,o),
(209,373,o),
(246,373,cs),
(294,373,o),
(285,324,o),
(311,324,cs),
(325,324,o),
(379,355,o),
(379,388,cs),
(379,414,o),
(355,443,o),
(321,443,cs),
(283,443,o),
(219,404,o),
(168,362,c),
(189,372,l),
(198,442,l),
(188,453,l),
(148,434,o),
(87,413,o),
(41,402,c),
(41,375,l),
(74,375,o),
(100,354,o),
(100,324,c),
(105,237,o),
(105,157,o),
(100,70,c),
(100,45,o),
(82,28,o),
(60,28,cs),
(26,28,l),
(26,0,l)
);
}
);
width = 379;
},
{
layerId = m002;
shapes = (
{
closed = 1;
nodes = (
(263,0,l),
(263,38,l),
(253,38,o),
(243,38,o),
(222,38,cs),
(199,38,o),
(184,46,o),
(184,57,cs),
(184,67,o),
(184,275,o),
(184,307,cs),
(184,346,o),
(209,373,o),
(246,373,cs),
(294,373,o),
(285,334,o),
(311,334,cs),
(325,334,o),
(379,365,o),
(379,398,cs),
(379,424,o),
(355,453,o),
(321,453,cs),
(283,453,o),
(219,414,o),
(168,372,c),
(186,369,l),
(198,452,l),
(188,463,l),
(148,444,o),
(87,423,o),
(41,412,c),
(41,375,l),
(74,375,o),
(100,354,o),
(100,324,c),
(105,237,o),
(105,167,o),
(100,80,c),
(100,55,o),
(82,38,o),
(60,38,cs),
(26,38,l),
(26,0,l)
);
}
);
width = 382;
}
);
metricLeft = n;
unicode = 114;
},
{
color = 4;
glyphname = s;
lastChange = "2024-11-09 20:14:10 +0000";
layers = (
{
layerId = m01;
shapes = (
{
closed = 1;
nodes = (
(251,-15,o),
(319,50,o),
(319,137,cs),
(319,267,o),
(96,264,o),
(96,360,cs),
(96,397,o),
(130,418,o),
(178,418,cs),
(224,418,o),
(247,397,o),
(247,366,cs),
(247,360,o),
(245,353,o),
(245,348,cs),
(245,344,o),
(264,342,o),
(291,342,cs),
(300,342,o),
(307,352,o),
(307,365,cs),
(307,415,o),
(261,451,o),
(197,451,cs),
(103,451,o),
(37,398,o),
(37,316,cs),
(37,173,o),
(253,184,o),
(253,104,cs),
(253,56,o),
(220,18,o),
(173,18,cs),
(120,18,o),
(92,46,o),
(92,87,cs),
(92,94,o),
(94,98,o),
(94,107,cs),
(94,114,o),
(76,119,o),
(50,119,cs),
(42,119,o),
(36,108,o),
(36,93,cs),
(36,30,o),
(86,-15,o),
(156,-15,cs)
);
}
);
width = 355;
},
{
layerId = m002;
shapes = (
{
closed = 1;
nodes = (
(254,-15,o),
(322,48,o),
(322,127,cs),
(322,257,o),
(109,284,o),
(109,370,cs),
(109,398,o),
(133,428,o),
(181,428,cs),
(216,428,o),
(240,401,o),
(240,376,cs),
(240,370,o),
(238,365,o),
(238,360,cs),
(238,355,o),
(267,352,o),
(294,352,cs),
(303,352,o),
(310,362,o),
(310,375,cs),
(310,425,o),
(264,461,o),
(200,461,cs),
(106,461,o),
(40,405,o),
(40,336,cs),
(40,193,o),
(246,174,o),
(246,104,cs),
(246,59,o),
(221,18,o),
(174,18,cs),
(132,18,o),
(105,52,o),
(105,87,cs),
(105,94,o),
(107,98,o),
(107,107,cs),
(107,114,o),
(79,119,o),
(53,119,cs),
(45,119,o),
(39,108,o),
(39,93,cs),
(39,30,o),
(89,-15,o),
(159,-15,cs)
);
}
);
width = 361;
}
);
metricLeft = o;
metricRight = o;
unicode = 115;
},
{
color = 4;
glyphname = germandbls;
lastChange = "2024-11-09 08:47:37 +0000";
layers = (
{
layerId = m01;
shapes = (
{
closed = 1;
nodes = (
(179,0,l),
(181,59,l),
(181,531,ls),
(181,604,o),
(205,668,o),
(233,692,cs),
(247,704,o),
(268,716,o),
(290,716,c),
(357,779,l),
(316,779,o),
(248,746,o),
(193,699,cs),
(140,655,o),
(103,582,o),
(103,512,cs),
(103,449,o),
(72,404,o),
(27,404,cs),
(15,404,l),
(15,376,l),
(100,376,l),
(100,77,ls),
(100,48,o),
(81,28,o),
(55,28,cs),
(10,28,l),
(10,0,l)
);
},
{
closed = 1;
nodes = (
(481,-12,o),
(549,49,o),
(549,136,cs),
(549,249,o),
(326,258,o),
(326,354,cs),
(326,420,o),
(500,504,o),
(500,612,cs),
(500,710,o),
(441,779,o),
(357,779,c),
(290,716,l),
(359,716,o),
(408,655,o),
(408,568,cs),
(408,445,o),
(267,434,o),
(267,307,cs),
(267,173,o),
(483,180,o),
(483,100,cs),
(483,52,o),
(450,18,o),
(403,18,cs),
(350,18,o),
(312,47,o),
(312,88,cs),
(312,95,o),
(314,101,o),
(314,110,cs),
(314,117,o),
(300,122,o),
(280,122,cs),
(272,122,o),
(266,111,o),
(266,96,cs),
(266,33,o),
(316,-12,o),
(386,-12,cs)
);
}
);
width = 585;
},
{
layerId = m002;
shapes = (
{
closed = 1;
nodes = (
(182,0,l),
(183,59,l),
(183,541,ls),
(183,614,o),
(208,658,o),
(236,682,cs),
(250,694,o),
(271,706,o),
(293,706,c),
(360,779,l),
(319,779,o),
(251,746,o),
(196,699,cs),
(143,655,o),
(106,592,o),
(106,522,cs),
(106,459,o),
(75,414,o),
(30,414,cs),
(18,414,l),
(18,376,l),
(103,376,l),
(103,87,ls),
(103,58,o),
(84,38,o),
(58,38,cs),
(13,38,l),
(13,0,l)
);
},
{
closed = 1;
nodes = (
(484,-12,o),
(552,49,o),
(552,136,cs),
(552,249,o),
(329,278,o),
(329,374,cs),
(329,440,o),
(503,494,o),
(503,612,cs),
(503,710,o),
(444,779,o),
(360,779,c),
(293,706,l),
(362,706,o),
(411,649,o),
(411,568,cs),
(411,445,o),
(270,464,o),
(270,327,cs),
(270,193,o),
(486,180,o),
(486,100,cs),
(486,58,o),
(453,28,o),
(406,28,cs),
(359,28,o),
(325,53,o),
(325,88,cs),
(325,95,o),
(327,101,o),
(327,110,cs),
(327,117,o),
(309,122,o),
(283,122,cs),
(275,122,o),
(269,111,o),
(269,96,cs),
(269,33,o),
(319,-12,o),
(389,-12,cs)
);
}
);
width = 591;
}
);
metricLeft = f;
metricRight = s;
unicode = 223;
},
{
color = 4;
glyphname = t;
lastChange = "2024-11-09 08:47:37 +0000";
layers = (
{
layerId = m01;
shapes = (
{
closed = 1;
nodes = (
(265,-12,o),
(324,24,o),
(345,74,c),
(325,90,l),
(303,63,o),
(267,44,o),
(237,44,cs),
(194,44,o),
(163,78,o),
(163,125,cs),
(163,377,l),
(321,377,l),
(321,435,l),
(167,435,l),
(167,502,l),
(153,514,l),
(115,463,o),
(62,418,o),
(24,405,c),
(24,377,l),
(81,377,l),
(84,278,o),
(81,179,o),
(81,82,cs),
(81,27,o),
(132,-12,o),
(202,-12,cs)
);
}
);
width = 354;
},
{
layerId = m002;
shapes = (
{
closed = 1;
nodes = (
(268,-12,o),
(332,31,o),
(353,81,c),
(328,100,l),
(306,73,o),
(270,54,o),
(240,54,cs),
(197,54,o),
(165,88,o),
(165,135,cs),
(165,377,l),
(324,377,l),
(324,445,l),
(170,445,l),
(170,512,l),
(156,524,l),
(118,473,o),
(65,428,o),
(27,415,c),
(27,377,l),
(84,377,l),
(87,278,o),
(84,181,o),
(84,84,cs),
(84,29,o),
(135,-12,o),
(205,-12,cs)
);
}
);
width = 365;
}
);
metricLeft = n;
unicode = 116;
},
{
color = 4;
glyphname = u;
lastChange = "2024-11-10 11:52:58 +0000";
layers = (
{
anchors = (
{
name = bottom;
pos = (277,0);
},
{
name = ogonek;
pos = (498,10);
},
{
name = top;
pos = (277,435);
},
{
name = topright;
pos = (533,435);
}
);
layerId = m01;
shapes = (
{
closed = 1;
nodes = (
(264,-14,o),
(348,21,o),
(414,78,c),
(407,107,l),
(355,68,o),
(298,45,o),
(270,45,cs),
(213,45,o),
(174,81,o),
(172,118,cs),
(167,224,o),
(167,329,o),
(172,435,c),
(12,435,l),
(12,407,l),
(20,407,o),
(24,407,o),
(36,407,cs),
(68,407,o),
(91,385,o),
(91,353,c),
(91,266,o),
(91,178,o),
(91,91,cs),
(91,35,o),
(141,-14,o),
(211,-14,cs)
);
},
{
closed = 1;
nodes = (
(539,17,l),
(534,44,l),
(517,40,o),
(493,38,o),
(476,38,cs),
(463,38,o),
(453,52,o),
(453,71,cs),
(453,90,o),
(453,354,o),
(453,372,c),
(457,423,l),
(450,435,l),
(264,435,l),
(264,407,l),
(278,407,o),
(293,407,o),
(306,407,cs),
(345,407,o),
(371,387,o),
(372,358,cs),
(377,259,o),
(377,160,o),
(372,61,c),
(368,0,l),
(374,-11,l)
);
}
);
width = 553;
},
{
anchors = (
{
name = bottom;
pos = (280,0);
},
{
name = ogonek;
pos = (503,10);
},
{
name = top;
pos = (280,445);
},
{
name = topright;
pos = (539,445);
}
);
layerId = m002;
shapes = (
{
closed = 1;
nodes = (
(267,-14,o),
(351,21,o),
(417,78,c),
(410,114,l),
(358,75,o),
(301,52,o),
(273,52,cs),
(216,52,o),
(179,91,o),
(177,128,cs),
(172,244,o),
(172,329,o),
(177,445,c),
(15,445,l),
(15,407,l),
(23,407,o),
(27,407,o),
(39,407,cs),
(71,407,o),
(94,385,o),
(94,353,c),
(94,266,o),
(94,178,o),
(94,91,cs),
(94,35,o),
(144,-14,o),
(214,-14,cs)
);
},
{
closed = 1;
nodes = (
(542,17,l),
(537,54,l),
(520,50,o),
(496,48,o),
(479,48,cs),
(466,48,o),
(456,62,o),
(456,81,cs),
(456,100,o),
(456,364,o),
(456,382,c),
(460,433,l),
(453,445,l),
(267,445,l),
(267,407,l),
(281,407,o),
(296,407,o),
(309,407,cs),
(348,407,o),
(371,387,o),
(372,358,cs),
(377,259,o),
(377,160,o),
(372,61,c),
(371,0,l),
(377,-11,l)
);
}
);
width = 559;
}
);
unicode = 117;
},
{
color = 4;
glyphname = v;
lastChange = "2024-11-09 08:47:37 +0000";
layers = (
{
layerId = m01;
shapes = (
{
closed = 1;
nodes = (
(241,-15,l),
(292,115,o),
(379,323,o),
(395,365,cs),
(411,407,o),
(491,407,o),
(504,407,c),
(504,435,l),
(305,435,l),
(305,407,l),
(331,407,l),
(362,407,o),
(374,388,o),
(362,362,c),
(256,118,l),
(225,199,o),
(174,337,o),
(158,379,cs),
(146,411,o),
(184,407,o),
(198,407,cs),
(233,407,l),
(233,435,l),
(0,435,l),
(0,407,l),
(5,407,o),
(20,407,o),
(25,407,cs),
(30,407,o),
(62,405,o),
(76,364,c),
(131,239,o),
(183,112,o),
(230,-15,c)
);
}
);
width = 504;
},
{
layerId = m002;
shapes = (
{
closed = 1;
nodes = (
(244,-15,l),
(295,115,o),
(382,323,o),
(398,365,cs),
(414,407,o),
(494,407,o),
(507,407,c),
(507,445,l),
(308,445,l),
(308,407,l),
(334,407,l),
(356,407,o),
(368,392,o),
(358,372,c),
(261,135,l),
(230,216,o),
(176,335,o),
(160,377,cs),
(148,409,o),
(187,407,o),
(201,407,cs),
(236,407,l),
(236,445,l),
(3,445,l),
(3,407,l),
(8,407,o),
(23,407,o),
(28,407,cs),
(33,407,o),
(65,405,o),
(79,364,c),
(134,239,o),
(186,112,o),
(233,-15,c)
);
}
);
width = 510;
}
);
unicode = 118;
},
{
color = 4;
glyphname = w;
lastChange = "2024-11-09 08:47:37 +0000";
layers = (
{
layerId = m01;
shapes = (
{
closed = 1;
nodes = (
(261,-15,l),
(312,115,o),
(379,323,o),
(395,365,cs),
(411,407,o),
(471,407,o),
(484,407,c),
(484,435,l),
(305,435,l),
(305,407,l),
(310,407,o),
(324,407,o),
(331,407,c),
(350,407,o),
(381,420,o),
(362,362,cs),
(282,118,l),
(164,379,l),
(152,411,o),
(184,407,o),
(198,407,cs),
(233,407,l),
(233,435,l),
(0,435,l),
(0,407,l),
(5,407,o),
(20,407,o),
(25,407,cs),
(30,407,o),
(62,405,o),
(76,364,c),
(245,-15,l)
);
},
{
closed = 1;
nodes = (
(487,-15,l),
(538,115,o),
(635,323,o),
(651,365,cs),
(667,407,o),
(747,407,o),
(760,407,c),
(760,435,l),
(561,435,l),
(561,407,l),
(566,407,o),
(580,407,o),
(587,407,c),
(617,407,o),
(630,388,o),
(618,362,cs),
(508,118,l),
(420,379,l),
(408,411,o),
(440,407,o),
(454,407,cs),
(489,407,l),
(489,435,l),
(291,435,l),
(291,407,l),
(296,407,o),
(301,407,o),
(306,407,cs),
(311,407,o),
(323,405,o),
(337,364,c),
(471,-15,l)
);
}
);
width = 760;
},
{
layerId = m002;
shapes = (
{
closed = 1;
nodes = (
(264,-15,l),
(315,115,o),
(382,323,o),
(398,365,cs),
(414,407,o),
(474,407,o),
(487,407,c),
(487,445,l),
(308,445,l),
(308,407,l),
(313,407,o),
(327,407,o),
(334,407,c),
(353,407,o),
(378,430,o),
(358,372,cs),
(273,124,l),
(162,375,l),
(150,407,o),
(187,407,o),
(201,407,cs),
(236,407,l),
(236,445,l),
(3,445,l),
(3,407,l),
(8,407,o),
(23,407,o),
(28,407,cs),
(33,407,o),
(65,405,o),
(79,364,c),
(248,-15,l)
);
},
{
closed = 1;
nodes = (
(490,-15,l),
(541,115,o),
(638,323,o),
(654,365,cs),
(670,407,o),
(750,407,o),
(763,407,c),
(763,445,l),
(564,445,l),
(564,407,l),
(569,407,o),
(583,407,o),
(590,407,c),
(612,407,o),
(623,392,o),
(614,372,cs),
(506,128,l),
(423,379,l),
(411,411,o),
(443,407,o),
(457,407,cs),
(492,407,l),
(492,445,l),
(289,445,l),
(289,407,l),
(294,407,o),
(306,407,o),
(311,407,cs),
(316,407,o),
(328,405,o),
(342,364,c),
(474,-15,l)
);
}
);
width = 766;
}
);
unicode = 119;
},
{
color = 4;
glyphname = x;
lastChange = "2024-11-09 08:47:37 +0000";
layers = (
{
layerId = m01;
shapes = (
{
closed = 1;
nodes = (
(304,216,l),
(164,379,ls),
(141,406,o),
(184,407,o),
(198,407,cs),
(233,407,l),
(233,435,l),
(0,435,l),
(0,407,l),
(5,407,o),
(20,407,o),
(25,407,cs),
(30,407,o),
(47,396,o),
(76,364,cs),
(210,216,l)
);
},
{
closed = 1;
nodes = (
(199,0,l),
(199,28,l),
(194,28,o),
(190,28,o),
(183,28,c),
(164,28,o),
(113,26,o),
(152,73,cs),
(270,217,l),
(228,217,l),
(109,70,ls),
(81,35,o),
(13,28,o),
(0,28,c),
(0,0,l)
);
},
{
closed = 1;
nodes = (
(504,0,l),
(504,28,l),
(499,28,o),
(484,28,o),
(479,28,cs),
(474,28,o),
(456,38,o),
(428,71,cs),
(304,216,l),
(210,216,l),
(340,56,ls),
(362,29,o),
(320,28,o),
(306,28,cs),
(271,28,l),
(271,0,l)
);
},
{
closed = 1;
nodes = (
(279,222,l),
(395,365,ls),
(423,400,o),
(491,407,o),
(504,407,c),
(504,435,l),
(305,435,l),
(305,407,l),
(310,407,o),
(314,407,o),
(321,407,c),
(340,407,o),
(390,409,o),
(352,362,cs),
(237,222,l)
);
}
);
width = 504;
},
{
layerId = m002;
shapes = (
{
closed = 1;
nodes = (
(307,221,l),
(167,379,ls),
(144,405,o),
(187,407,o),
(201,407,cs),
(236,407,l),
(236,445,l),
(3,445,l),
(3,407,l),
(8,407,o),
(23,407,o),
(28,407,cs),
(33,407,o),
(50,395,o),
(79,364,cs),
(213,221,l)
);
},
{
closed = 1;
nodes = (
(202,0,l),
(202,38,l),
(197,38,o),
(193,38,o),
(186,38,c),
(167,38,o),
(116,37,o),
(155,83,cs),
(273,222,l),
(221,222,l),
(102,80,ls),
(73,46,o),
(16,38,o),
(3,38,c),
(3,0,l)
);
},
{
closed = 1;
nodes = (
(507,0,l),
(507,38,l),
(502,38,o),
(487,38,o),
(482,38,cs),
(477,38,o),
(460,49,o),
(431,81,cs),
(307,221,l),
(213,221,l),
(343,66,ls),
(365,40,o),
(323,38,o),
(309,38,cs),
(274,38,l),
(274,0,l)
);
},
{
closed = 1;
nodes = (
(287,227,l),
(408,365,ls),
(437,398,o),
(494,407,o),
(507,407,c),
(507,445,l),
(308,445,l),
(308,407,l),
(313,407,o),
(317,407,o),
(324,407,c),
(343,407,o),
(395,407,o),
(355,362,cs),
(235,227,l)
);
}
);
width = 510;
}
);
unicode = 120;
},
{
color = 4;
glyphname = y;
lastChange = "2024-11-09 08:47:37 +0000";
layers = (
{
layerId = m01;
shapes = (
{
closed = 1;
nodes = (
(152,-278,o),
(193,-243,o),
(211,-193,cs),
(246,-96,o),
(262,-64,o),
(290,13,c),
(418,359,l),
(429,388,o),
(461,409,o),
(495,409,c),
(495,435,l),
(302,435,l),
(302,407,l),
(346,407,l),
(371,407,o),
(381,386,o),
(370,357,cs),
(274,92,l),
(167,352,l),
(156,384,o),
(177,407,o),
(217,407,c),
(230,407,l),
(230,435,l),
(0,435,l),
(0,407,l),
(15,407,l),
(34,407,o),
(53,396,o),
(60,381,c),
(112,274,o),
(187,107,o),
(242,-23,c),
(250,69,l),
(234,-17,o),
(194,-124,o),
(194,-124,cs),
(182,-163,o),
(157,-190,o),
(134,-190,cs),
(106,-190,o),
(115,-176,o),
(92,-176,cs),
(71,-176,o),
(56,-193,o),
(56,-217,cs),
(56,-253,o),
(79,-278,o),
(112,-278,cs)
);
}
);
width = 495;
},
{
layerId = m002;
shapes = (
{
closed = 1;
nodes = (
(155,-278,o),
(196,-243,o),
(214,-193,cs),
(249,-96,o),
(265,-64,o),
(293,13,c),
(421,359,l),
(432,388,o),
(464,409,o),
(498,409,c),
(498,445,l),
(305,445,l),
(305,407,l),
(349,407,l),
(366,407,o),
(384,390,o),
(376,367,cs),
(281,95,l),
(166,352,l),
(155,384,o),
(180,407,o),
(220,407,c),
(233,407,l),
(233,445,l),
(3,445,l),
(3,407,l),
(18,407,l),
(37,407,o),
(56,396,o),
(63,381,c),
(130,244,o),
(203,76,o),
(239,-10,c),
(243,69,l),
(227,-17,o),
(187,-124,o),
(187,-124,cs),
(175,-163,o),
(154,-190,o),
(137,-190,cs),
(109,-190,o),
(118,-176,o),
(95,-176,cs),
(74,-176,o),
(59,-193,o),
(59,-217,cs),
(59,-253,o),
(82,-278,o),
(115,-278,cs)
);
}
);
width = 501;
}
);
unicode = 121;
},
{
color = 4;
glyphname = z;
lastChange = "2024-11-09 08:47:37 +0000";
layers = (
{
layerId = m01;
shapes = (
{
closed = 1;
nodes = (
(193,0,l),
(193,30,l),
(154,30,ls),
(146,30,o),
(144,39,o),
(150,51,c),
(224,167,o),
(301,281,o),
(383,395,c),
(383,435,l),
(81,435,l),
(42,289,l),
(76,281,l),
(97,354,o),
(129,405,o),
(154,405,cs),
(277,405,ls),
(286,405,o),
(288,398,o),
(281,387,c),
(20,0,l)
);
},
{
closed = 1;
nodes = (
(373,0,l),
(406,143,l),
(372,150,l),
(362,80,o),
(325,30,o),
(283,30,cs),
(230,30,l),
(94,30,l),
(48,30,l),
(48,0,l)
);
}
);
width = 418;
},
{
layerId = m002;
shapes = (
{
closed = 1;
nodes = (
(212,0,l),
(212,40,l),
(178,40,ls),
(170,40,o),
(168,49,o),
(174,61,c),
(248,177,o),
(320,293,o),
(402,407,c),
(402,447,l),
(100,447,l),
(61,301,l),
(95,293,l),
(116,366,o),
(148,407,o),
(173,407,cs),
(286,407,ls),
(295,407,o),
(297,400,o),
(290,389,c),
(39,0,l)
);
},
{
closed = 1;
nodes = (
(392,0,l),
(425,143,l),
(391,150,l),
(381,80,o),
(344,40,o),
(302,40,cs),
(249,40,l),
(113,40,l),
(67,30,l),
(67,0,l)
);
}
);
width = 464;
}
);
unicode = 122;
},
{
color = 4;
glyphname = s.hist;
lastChange = "2024-11-09 20:14:05 +0000";
layers = (
{
layerId = m01;
shapes = (
{
closed = 1;
nodes = (
(276,0,l),
(276,28,l),
(267,28,o),
(266,28,o),
(229,28,cs),
(207,28,o),
(191,41,o),
(191,59,cs),
(191,90,o),
(191,497,o),
(191,531,cs),
(191,604,o),
(215,668,o),
(243,692,cs),
(257,704,o),
(278,716,o),
(300,716,cs),
(352,716,o),
(331,650,o),
(379,650,cs),
(404,650,o),
(455,676,o),
(455,713,cs),
(455,752,o),
(419,779,o),
(367,779,cs),
(326,779,o),
(258,746,o),
(203,699,cs),
(150,655,o),
(113,582,o),
(113,512,cs),
(113,449,o),
(82,404,o),
(37,404,cs),
(25,404,l),
(25,376,l),
(110,376,l),
(115,276,o),
(115,177,o),
(110,77,c),
(110,48,o),
(91,28,o),
(65,28,cs),
(20,28,l),
(20,0,l)
);
}
);
width = 312;
},
{
layerId = m002;
shapes = (
{
closed = 1;
nodes = (
(295,0,l),
(295,38,l),
(286,38,o),
(285,38,o),
(248,38,cs),
(226,38,o),
(213,51,o),
(213,69,cs),
(213,100,o),
(213,507,o),
(213,541,cs),
(213,614,o),
(234,658,o),
(262,682,cs),
(276,694,o),
(297,706,o),
(319,706,cs),
(371,706,o),
(350,650,o),
(398,650,cs),
(423,650,o),
(474,676,o),
(474,713,cs),
(474,752,o),
(438,779,o),
(386,779,cs),
(345,779,o),
(277,746,o),
(222,699,cs),
(169,655,o),
(132,592,o),
(132,522,cs),
(132,459,o),
(101,414,o),
(56,414,cs),
(44,414,l),
(44,376,l),
(129,376,l),
(134,276,o),
(134,187,o),
(129,87,c),
(129,58,o),
(110,38,o),
(84,38,cs),
(39,38,l),
(39,0,l)
);
}
);
width = 315;
}
);
metricLeft = n;
metricRight = n;
},
{
color = 4;
glyphname = c_t;
lastChange = "2024-11-09 08:47:37 +0000";
layers = (
{
layerId = m01;
shapes = (
{
closed = 1;
nodes = (
(286,-12,o),
(367,30,o),
(419,90,c),
(399,110,l),
(367,77,o),
(316,54,o),
(275,54,cs),
(181,54,o),
(115,128,o),
(115,233,cs),
(115,333,o),
(165,409,o),
(235,409,cs),
(318,409,o),
(295,340,o),
(340,340,cs),
(371,340,o),
(393,355,o),
(393,376,cs),
(393,418,o),
(348,447,o),
(284,447,cs),
(139,447,o),
(36,338,o),
(36,192,c),
(36,73,o),
(114,-12,o),
(224,-12,c)
);
},
{
closed = 1;
nodes = (
(693,-12,o),
(752,24,o),
(773,74,c),
(753,90,l),
(731,63,o),
(695,44,o),
(665,44,cs),
(622,44,o),
(591,78,o),
(591,125,cs),
(591,377,l),
(749,377,l),
(749,435,l),
(595,435,l),
(595,502,l),
(581,514,l),
(543,463,o),
(490,418,o),
(452,405,c),
(452,377,l),
(510,377,l),
(510,286,o),
(510,100,o),
(510,82,cs),
(510,27,o),
(560,-12,o),
(630,-12,cs)
);
},
{
closed = 1;
nodes = (
(597,635,o),
(527,700,o),
(429,700,cs),
(327,700,o),
(254,635,o),
(254,544,cs),
(254,475,o),
(286,405,o),
(332,374,c),
(367,424,l),
(325,453,o),
(296,502,o),
(296,543,cs),
(296,610,o),
(351,658,o),
(429,658,cs),
(504,658,o),
(556,611,o),
(555,544,cs),
(555,484,o),
(512,426,o),
(452,405,c),
(595,435,l),
(597,544,l)
);
}
);
width = 782;
},
{
layerId = m002;
shapes = (
{
closed = 1;
nodes = (
(289,-12,o),
(370,30,o),
(422,90,c),
(402,120,l),
(370,87,o),
(319,64,o),
(278,64,cs),
(184,64,o),
(118,138,o),
(118,243,cs),
(118,343,o),
(168,409,o),
(238,409,cs),
(321,409,o),
(298,350,o),
(343,350,cs),
(374,350,o),
(396,365,o),
(396,386,cs),
(396,428,o),
(351,457,o),
(287,457,cs),
(142,457,o),
(39,348,o),
(39,202,c),
(39,83,o),
(117,-12,o),
(227,-12,c)
);
},
{
closed = 1;
nodes = (
(696,-12,o),
(751,28,o),
(776,78,c),
(756,100,l),
(734,73,o),
(698,54,o),
(668,54,cs),
(625,54,o),
(594,78,o),
(594,125,cs),
(594,377,l),
(752,377,l),
(752,445,l),
(598,445,l),
(598,512,l),
(584,524,l),
(546,473,o),
(493,428,o),
(455,415,c),
(455,377,l),
(513,377,l),
(513,286,o),
(513,100,o),
(513,82,cs),
(513,27,o),
(563,-12,o),
(633,-12,cs)
);
},
{
closed = 1;
nodes = (
(600,640,o),
(528,700,o),
(427,700,cs),
(327,700,o),
(257,640,o),
(257,554,cs),
(257,485,o),
(289,415,o),
(335,384,c),
(370,434,l),
(334,459,o),
(309,508,o),
(309,553,cs),
(309,609,o),
(358,648,o),
(427,648,cs),
(498,648,o),
(548,609,o),
(548,554,cs),
(548,492,o),
(509,434,o),
(455,415,c),
(598,445,l),
(600,554,l)
);
}
);
width = 788;
}
);
metricLeft = c;
metricRight = t;
},
{
color = 4;
glyphname = f_f;
lastChange = "2024-11-09 08:47:37 +0000";
layers = (
{
background = {
shapes = (
{
closed = 1;
nodes = (
(561,1,l),
(561,31,l),
(551,31,o),
(506,31,o),
(500,31,cs),
(486,31,o),
(476,44,o),
(476,63,cs),
(476,107,o),
(473,298,o),
(473,343,cs),
(473,404,o),
(424,447,o),
(354,447,cs),
(287,447,o),
(199,408,o),
(141,353,c),
(152,328,l),
(186,361,o),
(246,384,o),
(298,384,cs),
(352,384,o),
(391,353,o),
(391,310,cs),
(391,280,o),
(391,133,o),
(391,94,cs),
(391,54,o),
(376,26,o),
(356,26,cs),
(319,26,l),
(319,1,l)
);
},
{
closed = 1;
nodes = (
(260,0,l),
(260,26,l),
(247,26,o),
(231,26,o),
(222,26,cs),
(198,26,o),
(181,46,o),
(181,74,cs),
(181,382,l),
(183,435,l),
(168,448,l),
(143,434,o),
(100,414,o),
(59,402,c),
(59,388,l),
(83,378,o),
(100,360,o),
(100,344,cs),
(100,279,o),
(100,127,o),
(100,82,cs),
(100,49,o),
(83,26,o),
(60,26,cs),
(30,26,l),
(30,0,l)
);
}
);
};
layerId = m01;
shapes = (
{
closed = 1;
nodes = (
(466,657,l),
(446,729,o),
(390,780,o),
(330,780,cs),
(197,780,o),
(103,669,o),
(103,512,cs),
(103,449,o),
(72,404,o),
(27,404,cs),
(15,404,l),
(15,376,l),
(100,376,l),
(100,77,ls),
(100,48,o),
(81,28,o),
(55,28,cs),
(10,28,l),
(10,0,l),
(266,0,l),
(266,28,l),
(219,28,ls),
(197,28,o),
(181,41,o),
(181,59,cs),
(181,531,ls),
(181,645,o),
(214,726,o),
(260,726,cs),
(344,726,o),
(407,664,o),
(410,577,c)
);
},
{
closed = 1;
nodes = (
(543,0,l),
(543,28,l),
(534,28,o),
(533,28,o),
(496,28,cs),
(474,28,o),
(458,41,o),
(458,59,cs),
(458,90,o),
(458,497,o),
(458,531,cs),
(458,604,o),
(482,668,o),
(510,692,cs),
(524,704,o),
(545,716,o),
(567,716,cs),
(619,716,o),
(598,650,o),
(646,650,cs),
(671,650,o),
(722,676,o),
(722,713,cs),
(722,752,o),
(686,779,o),
(634,779,cs),
(593,779,o),
(525,746,o),
(470,699,cs),
(417,655,o),
(380,582,o),
(380,512,cs),
(380,449,o),
(349,404,o),
(304,404,cs),
(292,404,l),
(292,376,l),
(377,376,l),
(377,282,o),
(377,102,o),
(377,77,cs),
(377,48,o),
(358,28,o),
(332,28,cs),
(287,28,l),
(287,0,l)
);
},
{
closed = 1;
nodes = (
(383,376,l),
(383,435,l),
(170,435,l),
(170,376,l)
);
},
{
closed = 1;
nodes = (
(577,376,l),
(577,435,l),
(444,435,l),
(444,376,l)
);
}
);
width = 589;
},
{
background = {
shapes = (
{
closed = 1;
nodes = (
(561,1,l),
(561,31,l),
(551,31,o),
(506,31,o),
(500,31,cs),
(486,31,o),
(476,44,o),
(476,63,cs),
(476,107,o),
(473,298,o),
(473,343,cs),
(473,404,o),
(424,447,o),
(354,447,cs),
(287,447,o),
(199,408,o),
(141,353,c),
(152,328,l),
(186,361,o),
(246,384,o),
(298,384,cs),
(352,384,o),
(391,353,o),
(391,310,cs),
(391,280,o),
(391,133,o),
(391,94,cs),
(391,54,o),
(376,26,o),
(356,26,cs),
(319,26,l),
(319,1,l)
);
},
{
closed = 1;
nodes = (
(260,0,l),
(260,26,l),
(247,26,o),
(231,26,o),
(222,26,cs),
(198,26,o),
(181,46,o),
(181,74,cs),
(181,382,l),
(183,435,l),
(168,448,l),
(143,434,o),
(100,414,o),
(59,402,c),
(59,388,l),
(83,378,o),
(100,360,o),
(100,344,cs),
(100,279,o),
(100,127,o),
(100,82,cs),
(100,49,o),
(83,26,o),
(60,26,cs),
(30,26,l),
(30,0,l)
);
}
);
};
layerId = m002;
shapes = (
{
closed = 1;
nodes = (
(469,657,l),
(449,729,o),
(393,780,o),
(333,780,cs),
(200,780,o),
(106,679,o),
(106,522,cs),
(106,459,o),
(75,414,o),
(30,414,cs),
(18,414,l),
(18,376,l),
(103,376,l),
(103,87,ls),
(103,58,o),
(84,38,o),
(58,38,cs),
(13,38,l),
(13,0,l),
(269,0,l),
(269,38,l),
(222,38,ls),
(200,38,o),
(184,51,o),
(184,69,cs),
(184,541,ls),
(184,655,o),
(227,716,o),
(273,716,cs),
(352,716,o),
(410,658,o),
(413,577,c)
);
},
{
closed = 1;
nodes = (
(546,0,l),
(546,38,l),
(537,38,o),
(536,38,o),
(499,38,cs),
(477,38,o),
(461,51,o),
(461,69,cs),
(461,100,o),
(461,507,o),
(461,541,cs),
(461,614,o),
(485,658,o),
(513,682,cs),
(527,694,o),
(548,706,o),
(570,706,cs),
(622,706,o),
(601,650,o),
(649,650,cs),
(674,650,o),
(725,676,o),
(725,713,cs),
(725,752,o),
(689,779,o),
(637,779,cs),
(596,779,o),
(528,746,o),
(473,699,cs),
(420,655,o),
(383,592,o),
(383,522,cs),
(383,459,o),
(352,414,o),
(307,414,cs),
(295,414,l),
(295,376,l),
(380,376,l),
(380,282,o),
(380,112,o),
(380,87,cs),
(380,58,o),
(361,38,o),
(335,38,cs),
(290,38,l),
(290,0,l)
);
},
{
closed = 1;
nodes = (
(386,376,l),
(386,445,l),
(173,445,l),
(173,376,l)
);
},
{
closed = 1;
nodes = (
(580,376,l),
(580,445,l),
(447,445,l),
(447,376,l)
);
}
);
width = 595;
}
);
metricLeft = f;
metricRight = f;
},
{
color = 4;
glyphname = f_i;
lastChange = "2024-11-09 08:47:37 +0000";
layers = (
{
background = {
shapes = (
{
closed = 1;
nodes = (
(561,1,l),
(561,31,l),
(551,31,o),
(506,31,o),
(500,31,cs),
(486,31,o),
(476,44,o),
(476,63,cs),
(476,107,o),
(473,298,o),
(473,343,cs),
(473,404,o),
(424,447,o),
(354,447,cs),
(287,447,o),
(199,408,o),
(141,353,c),
(152,328,l),
(186,361,o),
(246,384,o),
(298,384,cs),
(352,384,o),
(391,353,o),
(391,310,cs),
(391,280,o),
(391,133,o),
(391,94,cs),
(391,54,o),
(376,26,o),
(356,26,cs),
(319,26,l),
(319,1,l)
);
},
{
closed = 1;
nodes = (
(260,0,l),
(260,26,l),
(247,26,o),
(231,26,o),
(222,26,cs),
(198,26,o),
(181,46,o),
(181,74,cs),
(181,382,l),
(183,435,l),
(168,448,l),
(143,434,o),
(100,414,o),
(59,402,c),
(59,388,l),
(83,378,o),
(100,360,o),
(100,344,cs),
(100,279,o),
(100,127,o),
(100,82,cs),
(100,49,o),
(83,26,o),
(60,26,cs),
(30,26,l),
(30,0,l)
);
}
);
};
layerId = m01;
shapes = (
{
closed = 1;
nodes = (
(544,0,l),
(544,28,l),
(536,28,o),
(506,28,o),
(499,28,cs),
(483,28,o),
(472,40,o),
(472,57,c),
(472,352,l),
(475,435,l),
(466,451,l),
(445,443,o),
(390,436,o),
(334,435,c),
(334,376,l),
(367,376,o),
(391,354,o),
(391,322,c),
(391,53,l),
(391,38,o),
(376,28,o),
(355,28,cs),
(336,28,l),
(336,0,l)
);
},
{
closed = 1;
nodes = (
(427,596,o),
(447,615,o),
(447,641,cs),
(447,667,o),
(427,686,o),
(399,686,cs),
(371,686,o),
(351,667,o),
(351,641,cs),
(351,615,o),
(371,596,o),
(399,596,cs)
);
},
{
closed = 1;
nodes = (
(447,641,l),
(438,722,o),
(384,780,o),
(330,780,cs),
(197,780,o),
(103,669,o),
(103,512,cs),
(103,449,o),
(72,404,o),
(27,404,cs),
(15,404,l),
(15,376,l),
(100,376,l),
(100,77,ls),
(100,48,o),
(81,28,o),
(55,28,cs),
(10,28,l),
(10,0,l),
(266,0,l),
(266,28,l),
(219,28,ls),
(197,28,o),
(181,41,o),
(181,59,cs),
(181,531,ls),
(181,645,o),
(214,726,o),
(260,726,cs),
(294,726,o),
(338,691,o),
(351,641,c)
);
},
{
closed = 1;
nodes = (
(334,376,l),
(334,435,l),
(160,435,l),
(160,376,l)
);
}
);
width = 563;
},
{
background = {
shapes = (
{
closed = 1;
nodes = (
(561,1,l),
(561,31,l),
(551,31,o),
(506,31,o),
(500,31,cs),
(486,31,o),
(476,44,o),
(476,63,cs),
(476,107,o),
(473,298,o),
(473,343,cs),
(473,404,o),
(424,447,o),
(354,447,cs),
(287,447,o),
(199,408,o),
(141,353,c),
(152,328,l),
(186,361,o),
(246,384,o),
(298,384,cs),
(352,384,o),
(391,353,o),
(391,310,cs),
(391,280,o),
(391,133,o),
(391,94,cs),
(391,54,o),
(376,26,o),
(356,26,cs),
(319,26,l),
(319,1,l)
);
},
{
closed = 1;
nodes = (
(260,0,l),
(260,26,l),
(247,26,o),
(231,26,o),
(222,26,cs),
(198,26,o),
(181,46,o),
(181,74,cs),
(181,382,l),
(183,435,l),
(168,448,l),
(143,434,o),
(100,414,o),
(59,402,c),
(59,388,l),
(83,378,o),
(100,360,o),
(100,344,cs),
(100,279,o),
(100,127,o),
(100,82,cs),
(100,49,o),
(83,26,o),
(60,26,cs),
(30,26,l),
(30,0,l)
);
}
);
};
layerId = m002;
shapes = (
{
closed = 1;
nodes = (
(547,0,l),
(547,38,l),
(539,38,o),
(509,38,o),
(502,38,cs),
(486,38,o),
(475,50,o),
(475,67,c),
(475,362,l),
(478,445,l),
(469,461,l),
(448,453,o),
(393,446,o),
(337,445,c),
(337,376,l),
(370,376,o),
(394,354,o),
(394,322,c),
(394,63,l),
(394,48,o),
(379,38,o),
(358,38,cs),
(339,38,l),
(339,0,l)
);
},
{
closed = 1;
nodes = (
(430,596,o),
(450,615,o),
(450,641,cs),
(450,667,o),
(430,686,o),
(402,686,cs),
(374,686,o),
(354,667,o),
(354,641,cs),
(354,615,o),
(374,596,o),
(402,596,cs)
);
},
{
closed = 1;
nodes = (
(450,641,l),
(441,722,o),
(387,780,o),
(333,780,cs),
(200,780,o),
(106,679,o),
(106,522,cs),
(106,459,o),
(75,414,o),
(30,414,cs),
(18,414,l),
(18,376,l),
(103,376,l),
(103,87,ls),
(103,58,o),
(84,38,o),
(58,38,cs),
(13,38,l),
(13,0,l),
(269,0,l),
(269,38,l),
(222,38,ls),
(200,38,o),
(184,51,o),
(184,69,cs),
(184,541,ls),
(184,655,o),
(217,716,o),
(263,716,cs),
(297,716,o),
(341,691,o),
(354,641,c)
);
},
{
closed = 1;
nodes = (
(337,376,l),
(337,445,l),
(163,445,l),
(163,376,l)
);
}
);
width = 569;
}
);
metricLeft = f;
metricRight = i;
},
{
color = 4;
glyphname = s_i;
lastChange = "2024-11-09 08:47:37 +0000";
layers = (
{
background = {
shapes = (
{
closed = 1;
nodes = (
(561,1,l),
(561,31,l),
(551,31,o),
(506,31,o),
(500,31,cs),
(486,31,o),
(476,44,o),
(476,63,cs),
(476,107,o),
(473,298,o),
(473,343,cs),
(473,404,o),
(424,447,o),
(354,447,cs),
(287,447,o),
(199,408,o),
(141,353,c),
(152,328,l),
(186,361,o),
(246,384,o),
(298,384,cs),
(352,384,o),
(391,353,o),
(391,310,cs),
(391,280,o),
(391,133,o),
(391,94,cs),
(391,54,o),
(376,26,o),
(356,26,cs),
(319,26,l),
(319,1,l)
);
},
{
closed = 1;
nodes = (
(260,0,l),
(260,26,l),
(247,26,o),
(231,26,o),
(222,26,cs),
(198,26,o),
(181,46,o),
(181,74,cs),
(181,382,l),
(183,435,l),
(168,448,l),
(143,434,o),
(100,414,o),
(59,402,c),
(59,388,l),
(83,378,o),
(100,360,o),
(100,344,cs),
(100,279,o),
(100,127,o),
(100,82,cs),
(100,49,o),
(83,26,o),
(60,26,cs),
(30,26,l),
(30,0,l)
);
}
);
};
layerId = m01;
shapes = (
{
closed = 1;
nodes = (
(524,0,l),
(524,28,l),
(516,28,o),
(486,28,o),
(479,28,cs),
(463,28,o),
(452,40,o),
(452,57,c),
(452,352,l),
(455,435,l),
(446,451,l),
(409,428,o),
(355,405,o),
(314,396,c),
(314,378,l),
(347,378,o),
(371,356,o),
(371,324,c),
(371,53,l),
(371,38,o),
(356,28,o),
(335,28,cs),
(316,28,l),
(316,0,l)
);
},
{
closed = 1;
nodes = (
(435,596,o),
(455,615,o),
(455,641,cs),
(455,667,o),
(435,686,o),
(407,686,cs),
(379,686,o),
(359,667,o),
(359,641,cs),
(359,615,o),
(379,596,o),
(407,596,cs)
);
},
{
closed = 1;
nodes = (
(455,641,l),
(446,722,o),
(406,780,o),
(330,780,cs),
(197,780,o),
(103,669,o),
(103,512,cs),
(103,449,o),
(72,404,o),
(27,404,cs),
(15,404,l),
(15,376,l),
(100,376,l),
(100,77,ls),
(100,48,o),
(81,28,o),
(55,28,cs),
(10,28,l),
(10,0,l),
(266,0,l),
(266,28,l),
(219,28,ls),
(197,28,o),
(181,41,o),
(181,59,cs),
(181,531,ls),
(181,645,o),
(214,726,o),
(260,726,cs),
(317,726,o),
(346,691,o),
(359,641,c)
);
}
);
width = 543;
},
{
background = {
shapes = (
{
closed = 1;
nodes = (
(561,1,l),
(561,31,l),
(551,31,o),
(506,31,o),
(500,31,cs),
(486,31,o),
(476,44,o),
(476,63,cs),
(476,107,o),
(473,298,o),
(473,343,cs),
(473,404,o),
(424,447,o),
(354,447,cs),
(287,447,o),
(199,408,o),
(141,353,c),
(152,328,l),
(186,361,o),
(246,384,o),
(298,384,cs),
(352,384,o),
(391,353,o),
(391,310,cs),
(391,280,o),
(391,133,o),
(391,94,cs),
(391,54,o),
(376,26,o),
(356,26,cs),
(319,26,l),
(319,1,l)
);
},
{
closed = 1;
nodes = (
(260,0,l),
(260,26,l),
(247,26,o),
(231,26,o),
(222,26,cs),
(198,26,o),
(181,46,o),
(181,74,cs),
(181,382,l),
(183,435,l),
(168,448,l),
(143,434,o),
(100,414,o),
(59,402,c),
(59,388,l),
(83,378,o),
(100,360,o),
(100,344,cs),
(100,279,o),
(100,127,o),
(100,82,cs),
(100,49,o),
(83,26,o),
(60,26,cs),
(30,26,l),
(30,0,l)
);
}
);
};
layerId = m002;
shapes = (
{
closed = 1;
nodes = (
(527,0,l),
(527,38,l),
(519,38,o),
(489,38,o),
(482,38,cs),
(466,38,o),
(455,50,o),
(455,67,c),
(455,362,l),
(458,445,l),
(449,461,l),
(412,438,o),
(358,415,o),
(317,406,c),
(317,378,l),
(350,378,o),
(374,356,o),
(374,324,c),
(374,63,l),
(374,48,o),
(359,38,o),
(338,38,cs),
(319,38,l),
(319,0,l)
);
},
{
closed = 1;
nodes = (
(438,596,o),
(458,615,o),
(458,641,cs),
(458,667,o),
(438,686,o),
(410,686,cs),
(382,686,o),
(362,667,o),
(362,641,cs),
(362,615,o),
(382,596,o),
(410,596,cs)
);
},
{
closed = 1;
nodes = (
(458,641,l),
(449,722,o),
(409,780,o),
(333,780,cs),
(200,780,o),
(106,679,o),
(106,522,cs),
(106,459,o),
(75,414,o),
(30,414,cs),
(18,414,l),
(18,376,l),
(103,376,l),
(103,87,ls),
(103,58,o),
(84,38,o),
(58,38,cs),
(13,38,l),
(13,0,l),
(269,0,l),
(269,38,l),
(222,38,ls),
(200,38,o),
(184,51,o),
(184,69,cs),
(184,541,ls),
(184,655,o),
(217,716,o),
(263,716,cs),
(320,716,o),
(349,691,o),
(362,641,c)
);
}
);
width = 549;
}
);
metricLeft = f;
metricRight = i;
},
{
color = 4;
glyphname = s_s;
lastChange = "2024-11-09 08:47:37 +0000";
layers = (
{
background = {
shapes = (
{
closed = 1;
nodes = (
(561,1,l),
(561,31,l),
(551,31,o),
(506,31,o),
(500,31,cs),
(486,31,o),
(476,44,o),
(476,63,cs),
(476,107,o),
(473,298,o),
(473,343,cs),
(473,404,o),
(424,447,o),
(354,447,cs),
(287,447,o),
(199,408,o),
(141,353,c),
(152,328,l),
(186,361,o),
(246,384,o),
(298,384,cs),
(352,384,o),
(391,353,o),
(391,310,cs),
(391,280,o),
(391,133,o),
(391,94,cs),
(391,54,o),
(376,26,o),
(356,26,cs),
(319,26,l),
(319,1,l)
);
},
{
closed = 1;
nodes = (
(260,0,l),
(260,26,l),
(247,26,o),
(231,26,o),
(222,26,cs),
(198,26,o),
(181,46,o),
(181,74,cs),
(181,382,l),
(183,435,l),
(168,448,l),
(143,434,o),
(100,414,o),
(59,402,c),
(59,388,l),
(83,378,o),
(100,360,o),
(100,344,cs),
(100,279,o),
(100,127,o),
(100,82,cs),
(100,49,o),
(83,26,o),
(60,26,cs),
(30,26,l),
(30,0,l)
);
}
);
};
layerId = m01;
shapes = (
{
closed = 1;
nodes = (
(466,657,l),
(446,729,o),
(390,780,o),
(330,780,cs),
(197,780,o),
(103,669,o),
(103,512,cs),
(103,449,o),
(72,404,o),
(27,404,cs),
(15,404,l),
(15,376,l),
(100,376,l),
(100,77,ls),
(100,48,o),
(81,28,o),
(55,28,cs),
(10,28,l),
(10,0,l),
(266,0,l),
(266,28,l),
(219,28,ls),
(197,28,o),
(181,41,o),
(181,59,cs),
(181,531,ls),
(181,645,o),
(214,726,o),
(260,726,cs),
(344,726,o),
(407,664,o),
(410,577,c)
);
},
{
closed = 1;
nodes = (
(543,0,l),
(543,28,l),
(534,28,o),
(533,28,o),
(496,28,cs),
(474,28,o),
(458,41,o),
(458,59,cs),
(458,90,o),
(458,497,o),
(458,531,cs),
(458,604,o),
(482,668,o),
(510,692,cs),
(524,704,o),
(545,716,o),
(567,716,cs),
(619,716,o),
(598,650,o),
(646,650,cs),
(671,650,o),
(722,676,o),
(722,713,cs),
(722,752,o),
(686,779,o),
(634,779,cs),
(593,779,o),
(525,746,o),
(470,699,cs),
(417,655,o),
(380,582,o),
(380,512,cs),
(380,449,o),
(349,404,o),
(304,404,cs),
(292,404,l),
(292,376,l),
(377,376,l),
(377,282,o),
(377,102,o),
(377,77,cs),
(377,48,o),
(358,28,o),
(332,28,cs),
(287,28,l),
(287,0,l)
);
}
);
width = 589;
},
{
background = {
shapes = (
{
closed = 1;
nodes = (
(561,1,l),
(561,31,l),
(551,31,o),
(506,31,o),
(500,31,cs),
(486,31,o),
(476,44,o),
(476,63,cs),
(476,107,o),
(473,298,o),
(473,343,cs),
(473,404,o),
(424,447,o),
(354,447,cs),
(287,447,o),
(199,408,o),
(141,353,c),
(152,328,l),
(186,361,o),
(246,384,o),
(298,384,cs),
(352,384,o),
(391,353,o),
(391,310,cs),
(391,280,o),
(391,133,o),
(391,94,cs),
(391,54,o),
(376,26,o),
(356,26,cs),
(319,26,l),
(319,1,l)
);
},
{
closed = 1;
nodes = (
(260,0,l),
(260,26,l),
(247,26,o),
(231,26,o),
(222,26,cs),
(198,26,o),
(181,46,o),
(181,74,cs),
(181,382,l),
(183,435,l),
(168,448,l),
(143,434,o),
(100,414,o),
(59,402,c),
(59,388,l),
(83,378,o),
(100,360,o),
(100,344,cs),
(100,279,o),
(100,127,o),
(100,82,cs),
(100,49,o),
(83,26,o),
(60,26,cs),
(30,26,l),
(30,0,l)
);
}
);
};
layerId = m002;
shapes = (
{
closed = 1;
nodes = (
(469,657,l),
(449,729,o),
(393,780,o),
(333,780,cs),
(200,780,o),
(106,679,o),
(106,522,cs),
(106,459,o),
(75,414,o),
(30,414,cs),
(18,414,l),
(18,376,l),
(103,376,l),
(103,87,ls),
(103,58,o),
(84,38,o),
(58,38,cs),
(13,38,l),
(13,0,l),
(269,0,l),
(269,38,l),
(222,38,ls),
(200,38,o),
(184,51,o),
(184,69,cs),
(184,541,ls),
(184,655,o),
(217,716,o),
(263,716,cs),
(347,716,o),
(410,664,o),
(413,577,c)
);
},
{
closed = 1;
nodes = (
(546,0,l),
(546,38,l),
(537,38,o),
(536,38,o),
(499,38,cs),
(477,38,o),
(461,51,o),
(461,69,cs),
(461,100,o),
(461,507,o),
(461,541,cs),
(461,614,o),
(485,658,o),
(513,682,cs),
(527,694,o),
(548,706,o),
(570,706,cs),
(622,706,o),
(601,650,o),
(649,650,cs),
(674,650,o),
(725,676,o),
(725,713,cs),
(725,752,o),
(689,779,o),
(637,779,cs),
(596,779,o),
(528,746,o),
(473,699,cs),
(420,655,o),
(383,592,o),
(383,522,cs),
(383,459,o),
(352,414,o),
(307,414,cs),
(295,414,l),
(295,376,l),
(380,376,l),
(380,282,o),
(380,112,o),
(380,87,cs),
(380,58,o),
(361,38,o),
(335,38,cs),
(290,38,l),
(290,0,l)
);
}
);
width = 595;
}
);
metricLeft = f;
metricRight = f;
},
{
color = 4;
glyphname = s_t;
lastChange = "2024-11-09 08:47:37 +0000";
layers = (
{
background = {
shapes = (
{
closed = 1;
nodes = (
(561,1,l),
(561,31,l),
(551,31,o),
(506,31,o),
(500,31,cs),
(486,31,o),
(476,44,o),
(476,63,cs),
(476,107,o),
(473,298,o),
(473,343,cs),
(473,404,o),
(424,447,o),
(354,447,cs),
(287,447,o),
(199,408,o),
(141,353,c),
(152,328,l),
(186,361,o),
(246,384,o),
(298,384,cs),
(352,384,o),
(391,353,o),
(391,310,cs),
(391,280,o),
(391,133,o),
(391,94,cs),
(391,54,o),
(376,26,o),
(356,26,cs),
(319,26,l),
(319,1,l)
);
},
{
closed = 1;
nodes = (
(260,0,l),
(260,26,l),
(247,26,o),
(231,26,o),
(222,26,cs),
(198,26,o),
(181,46,o),
(181,74,cs),
(181,382,l),
(183,435,l),
(168,448,l),
(143,434,o),
(100,414,o),
(59,402,c),
(59,388,l),
(83,378,o),
(100,360,o),
(100,344,cs),
(100,279,o),
(100,127,o),
(100,82,cs),
(100,49,o),
(83,26,o),
(60,26,cs),
(30,26,l),
(30,0,l)
);
}
);
};
layerId = m01;
shapes = (
{
closed = 1;
nodes = (
(266,0,l),
(266,28,l),
(219,28,ls),
(197,28,o),
(181,41,o),
(181,59,cs),
(181,531,ls),
(181,645,o),
(214,726,o),
(260,726,cs),
(314,726,o),
(371,670,o),
(371,592,cs),
(371,377,l),
(456,502,l),
(456,611,ls),
(456,710,o),
(393,780,o),
(330,780,cs),
(197,780,o),
(103,669,o),
(103,512,cs),
(103,449,o),
(72,404,o),
(27,404,cs),
(15,404,l),
(15,376,l),
(100,376,l),
(100,77,ls),
(100,48,o),
(81,28,o),
(55,28,cs),
(10,28,l),
(10,0,l)
);
},
{
closed = 1;
nodes = (
(554,-12,o),
(613,24,o),
(634,74,c),
(614,90,l),
(592,63,o),
(556,44,o),
(526,44,cs),
(483,44,o),
(452,78,o),
(452,125,cs),
(452,377,l),
(610,377,l),
(610,435,l),
(456,435,l),
(456,502,l),
(442,514,l),
(404,463,o),
(351,418,o),
(313,405,c),
(313,377,l),
(371,377,l),
(371,82,ls),
(371,27,o),
(421,-12,o),
(491,-12,cs)
);
}
);
width = 643;
},
{
background = {
shapes = (
{
closed = 1;
nodes = (
(561,1,l),
(561,31,l),
(551,31,o),
(506,31,o),
(500,31,cs),
(486,31,o),
(476,44,o),
(476,63,cs),
(476,107,o),
(473,298,o),
(473,343,cs),
(473,404,o),
(424,447,o),
(354,447,cs),
(287,447,o),
(199,408,o),
(141,353,c),
(152,328,l),
(186,361,o),
(246,384,o),
(298,384,cs),
(352,384,o),
(391,353,o),
(391,310,cs),
(391,280,o),
(391,133,o),
(391,94,cs),
(391,54,o),
(376,26,o),
(356,26,cs),
(319,26,l),
(319,1,l)
);
},
{
closed = 1;
nodes = (
(260,0,l),
(260,26,l),
(247,26,o),
(231,26,o),
(222,26,cs),
(198,26,o),
(181,46,o),
(181,74,cs),
(181,382,l),
(183,435,l),
(168,448,l),
(143,434,o),
(100,414,o),
(59,402,c),
(59,388,l),
(83,378,o),
(100,360,o),
(100,344,cs),
(100,279,o),
(100,127,o),
(100,82,cs),
(100,49,o),
(83,26,o),
(60,26,cs),
(30,26,l),
(30,0,l)
);
}
);
};
layerId = m002;
shapes = (
{
closed = 1;
nodes = (
(269,0,l),
(269,38,l),
(222,38,ls),
(200,38,o),
(184,51,o),
(184,69,cs),
(184,541,ls),
(184,655,o),
(217,716,o),
(263,716,cs),
(317,716,o),
(374,670,o),
(374,592,cs),
(374,377,l),
(459,512,l),
(459,611,ls),
(459,710,o),
(396,780,o),
(333,780,cs),
(200,780,o),
(106,679,o),
(106,522,cs),
(106,459,o),
(75,414,o),
(30,414,cs),
(18,414,l),
(18,376,l),
(103,376,l),
(103,87,ls),
(103,58,o),
(84,38,o),
(58,38,cs),
(13,38,l),
(13,0,l)
);
},
{
closed = 1;
nodes = (
(557,-12,o),
(616,24,o),
(637,74,c),
(617,100,l),
(595,73,o),
(559,54,o),
(529,54,cs),
(486,54,o),
(455,78,o),
(455,125,cs),
(455,377,l),
(613,377,l),
(613,445,l),
(459,445,l),
(459,512,l),
(445,524,l),
(407,473,o),
(354,428,o),
(316,415,c),
(316,377,l),
(374,377,l),
(374,82,ls),
(374,27,o),
(424,-12,o),
(494,-12,cs)
);
}
);
width = 649;
}
);
metricLeft = f;
metricRight = t;
},
{
glyphname = period;
lastChange = "2024-11-09 08:47:37 +0000";
layers = (
{
layerId = m01;
shapes = (
{
closed = 1;
nodes = (
(165,-2,o),
(194,27,o),
(194,63,cs),
(194,99,o),
(165,128,o),
(129,128,cs),
(93,128,o),
(64,99,o),
(64,63,cs),
(64,27,o),
(93,-2,o),
(129,-2,cs)
);
}
);
width = 258;
},
{
layerId = m002;
shapes = (
{
closed = 1;
nodes = (
(171,-4,o),
(201,26,o),
(201,63,cs),
(201,100,o),
(171,130,o),
(134,130,cs),
(97,130,o),
(67,100,o),
(67,63,cs),
(67,26,o),
(97,-4,o),
(134,-4,cs)
);
}
);
width = 268;
}
);
unicode = 46;
},
{
glyphname = comma;
lastChange = "2024-11-09 08:47:37 +0000";
layers = (
{
layerId = m01;
shapes = (
{
closed = 1;
nodes = (
(160,-136,o),
(218,-56,o),
(218,23,cs),
(218,74,o),
(179,115,o),
(124,115,cs),
(84,115,o),
(55,88,o),
(55,56,cs),
(55,31,o),
(71,8,o),
(93,8,cs),
(113,8,o),
(116,16,o),
(133,16,cs),
(148,16,o),
(158,-2,o),
(158,-27,cs),
(158,-82,o),
(119,-126,o),
(65,-140,c),
(77,-170,l)
);
}
);
width = 282;
},
{
layerId = m002;
shapes = (
{
closed = 1;
nodes = (
(169,-143,o),
(231,-58,o),
(231,26,cs),
(231,80,o),
(190,124,o),
(131,124,cs),
(89,124,o),
(58,95,o),
(58,61,cs),
(58,35,o),
(75,10,o),
(98,10,cs),
(120,10,o),
(123,19,o),
(141,19,cs),
(157,19,o),
(167,0,o),
(167,-27,cs),
(167,-85,o),
(126,-132,o),
(69,-147,c),
(81,-179,l)
);
}
);
width = 298;
}
);
unicode = 44;
},
{
glyphname = colon;
lastChange = "2024-11-09 08:47:37 +0000";
layers = (
{
layerId = m01;
shapes = (
{
closed = 1;
nodes = (
(185,222,o),
(214,243,o),
(214,269,cs),
(214,295,o),
(185,316,o),
(149,316,cs),
(113,316,o),
(84,295,o),
(84,269,cs),
(84,243,o),
(113,222,o),
(149,222,cs)
);
},
{
closed = 1;
nodes = (
(165,-2,o),
(194,19,o),
(194,45,cs),
(194,71,o),
(165,92,o),
(129,92,cs),
(93,92,o),
(64,71,o),
(64,45,cs),
(64,19,o),
(93,-2,o),
(129,-2,cs)
);
}
);
width = 278;
},
{
layerId = m002;
shapes = (
{
closed = 1;
nodes = (
(196,226,o),
(227,248,o),
(227,276,cs),
(227,303,o),
(196,326,o),
(158,326,cs),
(119,326,o),
(89,303,o),
(89,276,cs),
(89,248,o),
(119,226,o),
(158,226,cs)
);
},
{
closed = 1;
nodes = (
(175,-12,o),
(205,11,o),
(205,38,cs),
(205,66,o),
(175,88,o),
(136,88,cs),
(98,88,o),
(67,66,o),
(67,38,cs),
(67,11,o),
(98,-12,o),
(136,-12,cs)
);
}
);
width = 294;
}
);
unicode = 58;
},
{
glyphname = semicolon;
lastChange = "2024-11-09 08:47:37 +0000";
layers = (
{
layerId = m01;
shapes = (
{
closed = 1;
nodes = (
(163,-139,o),
(217,-59,o),
(217,23,cs),
(217,71,o),
(182,105,o),
(133,105,cs),
(93,105,o),
(64,85,o),
(64,56,cs),
(64,28,o),
(80,8,o),
(102,8,cs),
(122,8,o),
(125,16,o),
(142,16,cs),
(157,16,o),
(167,-2,o),
(167,-27,cs),
(167,-79,o),
(128,-126,o),
(74,-140,c),
(86,-170,l)
);
},
{
closed = 1;
nodes = (
(205,217,o),
(231,237,o),
(231,262,cs),
(231,286,o),
(205,306,o),
(173,306,cs),
(141,306,o),
(115,286,o),
(115,262,cs),
(115,237,o),
(141,217,o),
(173,217,cs)
);
}
);
width = 295;
},
{
layerId = m002;
shapes = (
{
closed = 1;
nodes = (
(172,-152,o),
(229,-67,o),
(229,20,cs),
(229,71,o),
(192,107,o),
(140,107,cs),
(98,107,o),
(67,86,o),
(67,55,cs),
(67,26,o),
(84,4,o),
(107,4,cs),
(128,4,o),
(132,13,o),
(150,13,cs),
(166,13,o),
(176,-6,o),
(176,-33,cs),
(176,-88,o),
(135,-138,o),
(78,-153,c),
(90,-184,l)
);
},
{
closed = 1;
nodes = (
(217,226,o),
(244,247,o),
(244,274,cs),
(244,299,o),
(217,320,o),
(183,320,cs),
(149,320,o),
(121,299,o),
(121,274,cs),
(121,247,o),
(149,226,o),
(183,226,cs)
);
}
);
width = 311;
}
);
unicode = 59;
},
{
glyphname = hyphen;
lastChange = "2024-11-09 08:47:37 +0000";
layers = (
{
layerId = m01;
shapes = (
{
closed = 1;
nodes = (
(307,166,l),
(310,253,l),
(260,253,l),
(91,228,l),
(50,216,l),
(53,161,l)
);
}
);
width = 360;
},
{
layerId = m002;
shapes = (
{
closed = 1;
nodes = (
(318,164,l),
(321,256,l),
(268,256,l),
(89,229,l),
(45,217,l),
(48,158,l)
);
}
);
width = 366;
}
);
unicode = 45;
},
{
glyphname = ampersand;
lastChange = "2024-11-09 08:47:37 +0000";
layers = (
{
layerId = m01;
shapes = (
{
closed = 1;
nodes = (
(312,-15,o),
(396,31,o),
(442,95,cs),
(494,167,l),
(480,199,l),
(418,113,ls),
(389,73,o),
(326,53,o),
(279,53,cs),
(211,53,o),
(148,128,o),
(148,215,cs),
(148,364,o),
(438,406,o),
(438,542,cs),
(438,615,o),
(382,666,o),
(304,666,cs),
(203,666,o),
(132,612,o),
(132,536,cs),
(132,496,o),
(145,456,o),
(179,424,cs),
(216,390,o),
(391,235,o),
(408,218,cs),
(441,185,o),
(475,124,o),
(500,72,cs),
(523,24,o),
(585,-10,o),
(636,-10,cs),
(686,-10,o),
(756,23,o),
(806,70,c),
(791,91,l),
(759,66,o),
(714,49,o),
(682,49,cs),
(648,49,o),
(606,76,o),
(584,115,cs),
(543,188,o),
(502,254,o),
(450,302,cs),
(369,377,o),
(306,421,o),
(266,459,cs),
(232,489,o),
(203,527,o),
(203,556,cs),
(203,600,o),
(239,639,o),
(284,639,cs),
(334,639,o),
(369,596,o),
(369,535,cs),
(369,402,o),
(54,348,o),
(54,176,c),
(54,64,o),
(123,-15,o),
(240,-15,c)
);
},
{
closed = 1;
nodes = (
(637,364,l),
(654,388,o),
(696,405,o),
(738,405,cs),
(786,405,l),
(786,433,l),
(539,433,l),
(539,405,l),
(545,405,o),
(560,405,o),
(588,405,cs),
(599,405,o),
(606,398,o),
(606,389,cs),
(606,379,o),
(596,358,o),
(581,338,c),
(480,191,l),
(494,159,l)
);
}
);
width = 860;
},
{
layerId = m002;
shapes = (
{
closed = 1;
nodes = (
(315,-15,o),
(399,31,o),
(445,95,cs),
(497,167,l),
(483,199,l),
(416,113,ls),
(386,74,o),
(329,53,o),
(282,53,cs),
(214,53,o),
(151,128,o),
(151,215,cs),
(151,354,o),
(441,406,o),
(441,542,cs),
(441,615,o),
(385,666,o),
(307,666,cs),
(206,666,o),
(135,612,o),
(135,536,cs),
(135,496,o),
(148,456,o),
(182,424,cs),
(219,390,o),
(394,235,o),
(411,218,cs),
(444,185,o),
(478,124,o),
(503,72,cs),
(526,24,o),
(588,-10,o),
(639,-10,cs),
(689,-10,o),
(759,23,o),
(809,70,c),
(790,95,l),
(758,70,o),
(717,49,o),
(685,49,cs),
(651,49,o),
(609,76,o),
(587,115,cs),
(546,188,o),
(505,254,o),
(453,302,cs),
(372,377,o),
(309,421,o),
(269,459,cs),
(235,489,o),
(206,527,o),
(206,556,cs),
(206,600,o),
(242,629,o),
(287,629,cs),
(337,629,o),
(372,596,o),
(372,535,cs),
(372,412,o),
(57,348,o),
(57,176,c),
(57,64,o),
(126,-15,o),
(243,-15,c)
);
},
{
closed = 1;
nodes = (
(650,364,l),
(667,388,o),
(699,395,o),
(741,395,cs),
(789,395,l),
(789,433,l),
(542,433,l),
(542,395,l),
(548,395,o),
(563,395,o),
(591,395,cs),
(602,395,o),
(609,393,o),
(609,384,cs),
(609,374,o),
(599,358,o),
(584,338,c),
(483,191,l),
(497,159,l)
);
}
);
width = 866;
}
);
metricLeft = o;
metricRight = o;
unicode = 38;
},
{
glyphname = dieresiscomb;
lastChange = "2024-11-10 11:52:35 +0000";
layers = (
{
anchors = (
{
name = _top;
pos = (150,435);
},
{
name = top;
pos = (150,626);
}
);
layerId = m01;
shapes = (
{
closed = 1;
nodes = (
(93,536,o),
(113,555,o),
(113,581,cs),
(113,607,o),
(93,626,o),
(65,626,cs),
(37,626,o),
(17,607,o),
(17,581,cs),
(17,555,o),
(37,536,o),
(65,536,cs)
);
},
{
closed = 1;
nodes = (
(263,536,o),
(283,555,o),
(283,581,cs),
(283,607,o),
(263,626,o),
(235,626,cs),
(207,626,o),
(187,607,o),
(187,581,cs),
(187,555,o),
(207,536,o),
(235,536,cs)
);
}
);
width = 300;
},
{
anchors = (
{
name = _top;
pos = (150,435);
},
{
name = top;
pos = (150,626);
}
);
layerId = m002;
shapes = (
{
closed = 1;
nodes = (
(93,536,o),
(113,555,o),
(113,581,cs),
(113,607,o),
(93,626,o),
(65,626,cs),
(37,626,o),
(17,607,o),
(17,581,cs),
(17,555,o),
(37,536,o),
(65,536,cs)
);
},
{
closed = 1;
nodes = (
(263,536,o),
(283,555,o),
(283,581,cs),
(283,607,o),
(263,626,o),
(235,626,cs),
(207,626,o),
(187,607,o),
(187,581,cs),
(187,555,o),
(207,536,o),
(235,536,cs)
);
}
);
width = 300;
}
);
unicode = 776;
},
